<?xml version="1.0" encoding="UTF-8"?>
<svg id="Layer_2" data-name="Layer 2" xmlns="http://www.w3.org/2000/svg" viewBox="0 0 33.12 8.83">
  <defs>
    <style>
      .cls-1 {
        fill: #fff;
        fill-rule: evenodd;
        stroke-width: 0px;
      }
    </style>
  </defs>
  <g id="Layer_1-2" data-name="Layer 1">
    <path class="cls-1" d="M8.54,5.72l.09.02v1.98l-.05.06c-.13.16-.37.18-.52.04-.06-.06-.09-.13-.14-.3-.11-.42-.11-.95,0-1.27.09-.28.25-.47.45-.52.08-.02.08-.02.17,0ZM19.31,3.58c.18.14.28.64.3,1.66,0,.36-.01,1.24-.04,1.7-.03.41-.11.8-.21.95-.05.08-.15.15-.22.15-.12,0-.24-.13-.3-.31-.08-.26-.08-.22-.09-2.03v-1.67s.06-.14.06-.14c.15-.31.34-.43.5-.31ZM31.2,2.69c.13.07.23.26.31.57.04.18.06.37.08.81.03.68.01,2.3-.03,2.86-.05.72-.16,1.06-.38,1.17-.09.05-.19.04-.28-.02-.06-.04-.08-.07-.15-.21-.14-.29-.17-.47-.2-1.26-.02-.63,0-2.25.02-2.69.06-.79.13-1.07.31-1.19.11-.08.21-.09.32-.03ZM23.61,2.69c.08.04.16.15.22.32.15.38.18.75.16,2.41,0,1.17-.02,1.46-.07,1.87-.07.57-.22.84-.48.84-.13,0-.21-.08-.31-.29-.17-.35-.2-.72-.2-2.39,0-.88,0-1.15.03-1.44.06-.85.13-1.13.3-1.27.11-.09.23-.1.34-.05ZM8.06,2.21c-.68.06-1.14.26-1.39.59-.18.24-.28.6-.26.94.03.45.38.83.8.86.21.01.38-.04.52-.17.16-.15.26-.39.27-.66.01-.28-.04-.44-.26-.69-.15-.18-.18-.23-.15-.3.04-.1.18-.16.41-.17.19-.01.27.01.37.1.08.07.14.16.18.29.03.09.03.16.03,1.13v1.04h-.04s-.11-.03-.18-.05c-.61-.13-1.06-.03-1.55.36-.29.22-.44.69-.44,1.34,0,.64.16,1.18.44,1.54.19.24.52.4.9.43.39.03.7-.06.99-.3l.12-.1.15.15c.17.17.27.23.46.27.17.04.48.02.65-.03.15-.04.38-.15.48-.22.1-.07.23-.19.27-.25l.03-.05-.13-.31-.13-.31-.11.12c-.16.16-.24.18-.31.06-.03-.05-.03-.07-.04-2.17,0-1.35-.02-2.16-.03-2.24-.07-.56-.61-1.05-1.3-1.17-.12-.02-.56-.03-.73-.01ZM27.98,2.19c-.32.09-.5.27-.65.68l-.05.14v-.37s0-.37,0-.37h-1.88v.73h.24s.24,0,.24,0v2.52s0,2.52,0,2.52h-.5v.67h2.56v-.67h-.68V3.52l.04-.06c.11-.15.21-.24.27-.24.05,0,.07.04.06.16-.01.13.02.31.06.41.1.22.31.33.63.33.23,0,.39-.07.53-.23.09-.1.15-.21.2-.37.05-.16.05-.51,0-.69-.05-.19-.11-.31-.23-.42-.22-.22-.56-.31-.87-.23ZM13.48,2.18c-.22.06-.39.19-.51.38-.06.1-.14.29-.17.38-.03.11-.04.03-.04-.31v-.37h-1.88v.73h.5v5.04h-.5v.67h2.56v-.67h-.33s-.33,0-.33,0v-2.25s0-2.25,0-2.25l.05-.07c.06-.09.2-.22.25-.24.07-.02.08,0,.08.23,0,.18.01.24.04.3.09.23.24.33.55.37.17.02.3,0,.45-.08.37-.18.53-.79.34-1.34-.08-.24-.27-.42-.54-.52-.11-.04-.38-.05-.5-.02ZM30.91,2.09c-.54.05-.96.34-1.29.9-.38.64-.56,1.3-.6,2.14-.04.94.11,1.78.45,2.48.28.57.66.91,1.19,1.05.13.04.17.04.42.04s.29,0,.41-.04c.32-.09.52-.21.75-.44.36-.37.66-.99.79-1.66.07-.36.09-.53.09-1.03.01-.8-.04-1.25-.22-1.81-.15-.45-.35-.81-.61-1.07-.43-.44-.84-.6-1.39-.56ZM23.31,2.09c-.26.02-.49.1-.7.24-.12.08-.3.25-.4.38-.11.14-.3.47-.42.74-.39.86-.48,2.12-.24,3.21.08.37.25.83.41,1.11.29.51.73.83,1.24.91.46.07.93-.04,1.26-.3.44-.34.81-1.04.96-1.81.13-.64.14-1.56.03-2.24-.12-.77-.45-1.44-.87-1.8-.19-.16-.24-.2-.36-.26-.28-.15-.59-.21-.92-.19ZM16.78.34v.34h.25s.25,0,.25,0v3.68s0,3.68,0,3.68h-.25c-.24,0-.25,0-.26.03,0,.02,0,.17,0,.34v.3s.98,0,.98,0h.98l.05-.13c.03-.07.05-.13.06-.14,0,0,.02,0,.03.03.04.07.17.19.27.23.2.09.5.14.69.11.41-.06.76-.48,1-1.18.16-.47.25-.99.3-1.6.02-.34,0-1.01-.03-1.31-.16-1.18-.55-1.93-1.13-2.13-.09-.03-.12-.04-.34-.04-.27,0-.33.01-.49.1-.12.06-.26.21-.35.36l-.06.1V0h-1.97v.34ZM14.39.34v.34h.38v7.37h-.38v.67h2.27v-.67h-.35V0h-1.93v.34ZM0,.34v.34h.44v7.37h-.44v.67h1.73v-.67h-.38v-2.24c0-1.23,0-2.24,0-2.23,0,0,.18,1.15.39,2.54.21,1.39.39,2.54.39,2.56v.04h1.24l.02-.11c0-.06.19-1.21.41-2.56.22-1.35.39-2.46.4-2.47,0-.01,0,.99,0,2.22v2.24s-.19,0-.19,0h-.2v.67h2.53v-.67h-.44V.67h.44v-.67h-2.52v.06s-.15,1.27-.31,2.76c-.16,1.49-.3,2.7-.31,2.69,0,0-.99-5.46-.99-5.49,0,0-.5-.01-1.11-.01H0v.34Z"/>
  </g>
</svg>