<?xml version="1.0" encoding="UTF-8"?>
<svg xmlns="http://www.w3.org/2000/svg" width="132" height="38" viewBox="0 0 132 38" fill="none">
  <path d="M15.4312 27.0918V21.9624H27.5832V27.0918L24.3975 26.9452V37.7483H18.6168V26.9452L15.4312 27.0918Z" fill="#2CB1E6"></path>
  <path d="M29.1381 37.7483V21.9624H34.9188V37.7483H29.1381Z" fill="#2CB1E6"></path>
  <path d="M37.6049 37.7483V21.9624H43.3855V32.6818H48.2379V37.7483H37.6049Z" fill="#2CB1E6"></path>
  <path d="M49.7801 37.7483V21.9624H56.5102C60.6593 21.9624 62.7338 23.421 62.7338 26.3381C62.7338 27.0639 62.551 27.7269 62.1853 28.327C61.8196 28.9132 61.3063 29.311 60.6452 29.5204V29.646C61.5313 29.9531 62.2205 30.4276 62.7128 31.0697C63.2191 31.6978 63.4723 32.4724 63.4723 33.3936C63.4723 34.1752 63.3035 34.8591 62.9659 35.4453C62.6284 36.0176 62.1713 36.4712 61.5946 36.8062C61.0179 37.1272 60.3991 37.3645 59.738 37.518C59.077 37.6716 58.3808 37.7483 57.6494 37.7483H49.7801ZM55.1388 28.0339H55.6663C56.0179 28.0339 56.3062 28.02 56.5313 27.992C56.7563 27.9502 56.9673 27.8385 57.1642 27.6571C57.3611 27.4617 57.4595 27.1965 57.4595 26.8615C57.4595 26.6521 57.4173 26.4777 57.333 26.3381C57.2626 26.1846 57.1782 26.0729 57.0798 26.0031C56.9954 25.9333 56.8547 25.8775 56.6578 25.8356C56.4609 25.7937 56.3062 25.7728 56.1937 25.7728C56.0952 25.7728 55.9335 25.7728 55.7085 25.7728C55.6241 25.7728 55.5678 25.7728 55.5397 25.7728H55.1388V28.0339ZM55.1388 31.3628V33.9798H55.7929C56.1163 33.9798 56.3765 33.9728 56.5735 33.9589C56.7704 33.931 57.0024 33.8821 57.2697 33.8123C57.551 33.7425 57.7619 33.6099 57.9026 33.4145C58.0432 33.2191 58.1136 32.9679 58.1136 32.6608C58.1136 32.3538 58.0362 32.1025 57.8815 31.9071C57.7408 31.7117 57.5228 31.5791 57.2275 31.5093C56.9321 31.4395 56.693 31.3977 56.5102 31.3837C56.3273 31.3698 56.0601 31.3628 55.7085 31.3628H55.1388Z" fill="#2CB1E6"></path>
  <path d="M74.2177 21.9624H79.9983V31.3C79.9983 33.5332 79.3443 35.2081 78.0363 36.3247C76.7423 37.4413 74.942 37.9996 72.6354 37.9996C70.3288 37.9996 68.5214 37.4413 67.2134 36.3247C65.9194 35.2081 65.2724 33.5332 65.2724 31.3V21.9624H71.0531V30.7556C71.0531 31.1464 71.0601 31.4535 71.0742 31.6768C71.1023 31.8862 71.1656 32.1165 71.2641 32.3677C71.3625 32.6189 71.5243 32.8004 71.7493 32.9121C71.9743 33.0237 72.2697 33.0795 72.6354 33.0795C73.0011 33.0795 73.2964 33.0237 73.5215 32.9121C73.7465 32.8004 73.9083 32.6189 74.0067 32.3677C74.1052 32.1165 74.1614 31.8862 74.1755 31.6768C74.2036 31.4535 74.2177 31.1464 74.2177 30.7556V21.9624Z" fill="#2CB1E6"></path>
  <path d="M82.5602 37.7483V21.9624H89.5434C91.4984 21.9624 93.0877 22.4091 94.3113 23.3023C95.5491 24.1956 96.1679 25.5774 96.1679 27.4477C96.1679 28.6062 95.9288 29.4925 95.4506 30.1066C94.9865 30.7068 94.1988 31.1883 93.0877 31.5512V31.6768C93.5518 32.0397 93.8753 32.3538 94.0582 32.6189L97.5181 37.7483H90.8514L88.3197 32.6818H88.2142V37.7483H82.5602ZM88.2142 26.2753V28.9551H88.6151C89.2058 28.9551 89.6699 28.8714 90.0075 28.7039C90.3451 28.5224 90.5138 28.1665 90.5138 27.6361C90.5138 27.0778 90.3521 26.7149 90.0286 26.5474C89.7051 26.366 89.248 26.2753 88.6573 26.2753H88.2142Z" fill="#2CB1E6"></path>
  <path d="M106.418 28.4526H115.342C115.328 29.332 115.307 29.974 115.279 30.3788C115.25 30.7835 115.18 31.3139 115.068 31.9699C114.955 32.6259 114.765 33.2121 114.498 33.7286C114.231 34.231 113.872 34.7196 113.422 35.1941C112.592 36.0874 111.572 36.7783 110.363 37.2668C109.167 37.7553 107.937 37.9996 106.671 37.9996C104.167 37.9996 102.079 37.2738 100.405 35.8222C98.7313 34.3706 97.8944 32.4166 97.8944 29.9601C97.8944 27.4337 98.7242 25.4308 100.384 23.9514C102.044 22.4579 104.153 21.7112 106.713 21.7112C108.246 21.7112 109.786 22.0741 111.333 22.7999C112.881 23.5257 113.942 24.5166 114.519 25.7728L109.118 27.7408C108.668 26.9313 107.937 26.5265 106.924 26.5265C105.94 26.5265 105.159 26.8894 104.582 27.6152C104.006 28.327 103.717 29.1854 103.717 30.1903C103.717 31.1115 103.984 31.9071 104.519 32.5771C105.067 33.2331 105.792 33.5611 106.692 33.5611C107.198 33.5611 107.684 33.4424 108.148 33.2052C108.612 32.9679 108.907 32.6259 109.034 32.1793H106.418V28.4526Z" fill="#2CB1E6"></path>
  <path d="M96.7783 16.2884V0H107.772V4.66616H102.787V6.35117H107.162V10.5853H102.787V16.2884H96.7783Z" fill="#E6057F"></path>
  <path d="M109.199 16.2884L111.855 0H117.993L120.257 8.55464H120.41C120.569 7.54651 120.707 6.82643 120.823 6.39437L122.674 0H128.747L131.446 16.2884H125.678L124.872 7.36649H124.763C124.618 8.11538 124.488 8.65545 124.372 8.98669L121.999 16.2884H118.516L116.382 9.39714C116.165 8.54744 116.041 7.87055 116.012 7.36649H115.816C115.758 8.2738 115.708 8.92908 115.664 9.33233L114.967 16.2884H109.199Z" fill="#E6057F"></path>
  <path d="M0 16.0371V0.251235H5.63297L5.50639 7.09738H5.63297C5.7033 6.74844 5.97053 6.15525 6.43467 5.3178L9.21951 0.251235H15.5276L10.5486 7.93482L16.055 16.0371H9.34609L6.60344 11.2637C6.53312 11.1381 6.41357 10.9496 6.24479 10.6984C6.07601 10.4472 5.9424 10.2239 5.84394 10.0284C5.74549 9.81908 5.67517 9.6167 5.63297 9.4213H5.50639L5.63297 16.0371H0Z" fill="white"></path>
  <path d="M17.2004 16.0371V0.251235H27.8967V4.56409H23.0232V6.0715H27.4747V10.175H23.0232V11.7243H28.0655V16.0371H17.2004Z" fill="white"></path>
  <path d="M30.4499 16.0371V0.251235H37.4331C39.3881 0.251235 40.9775 0.697874 42.2011 1.59115C43.4388 2.48443 44.0577 3.86622 44.0577 5.73652C44.0577 6.89499 43.8186 7.78129 43.3404 8.39542C42.8762 8.99559 42.0886 9.47713 40.9775 9.84002V9.96564C41.4416 10.3285 41.7651 10.6426 41.948 10.9078L45.4079 16.0371H38.7412L36.2095 10.9706H36.104V16.0371H30.4499ZM36.104 4.56409V7.24393H36.5049C37.0956 7.24393 37.5597 7.16018 37.8973 6.9927C38.2348 6.81125 38.4036 6.45533 38.4036 5.92495C38.4036 5.36665 38.2419 5.00376 37.9184 4.83627C37.5949 4.65482 37.1378 4.56409 36.5471 4.56409H36.104Z" fill="white"></path>
  <path d="M45.7631 16.0371L48.337 0.251235H54.2864L56.4805 8.54198H56.6282C56.7829 7.56495 56.9165 6.86708 57.029 6.44835L58.8223 0.251235H64.7084L67.3245 16.0371H61.7337L60.9531 7.39048H60.8476C60.707 8.11627 60.5804 8.63968 60.4679 8.9607L58.1683 16.0371H54.7927L52.7252 9.35849C52.5142 8.535 52.3947 7.87899 52.3665 7.39048H52.1767C52.1204 8.2698 52.0712 8.90487 52.029 9.29568L51.3539 16.0371H45.7631Z" fill="white"></path>
  <path d="M69.3078 16.0371V0.251235H75.0885V16.0371H69.3078Z" fill="white"></path>
  <path d="M76.9518 14.8438L78.7239 10.3844L79.0193 10.6147C80.2711 11.5777 81.4736 12.0593 82.6269 12.0593C82.9786 12.0593 83.3091 11.9825 83.6185 11.829C83.942 11.6754 84.1038 11.4382 84.1038 11.1171C84.1038 11.0194 84.0897 10.9357 84.0616 10.8659C84.0475 10.7821 84.0053 10.7124 83.935 10.6565C83.8647 10.5867 83.8084 10.5379 83.7662 10.51C83.7381 10.4681 83.6607 10.4332 83.5341 10.4053C83.4216 10.3634 83.3443 10.3425 83.3021 10.3425C83.2739 10.3285 83.1895 10.3076 83.0489 10.2797L81.6565 10.0284C80.4328 9.81908 79.4342 9.36547 78.6607 8.66759C77.8871 7.95576 77.5003 7.01363 77.5003 5.8412C77.5003 4.64086 77.8379 3.58707 78.513 2.67984C79.1881 1.7726 80.039 1.10264 81.0657 0.669959C82.1065 0.22332 83.2177 0 84.3991 0C86.2275 0 87.9083 0.460597 89.4414 1.38179L87.8801 5.42248C86.6987 4.6269 85.5806 4.22912 84.5257 4.22912C84.2163 4.22912 83.9279 4.2989 83.6607 4.43848C83.4075 4.56409 83.281 4.77346 83.281 5.06656C83.281 5.15031 83.288 5.22708 83.3021 5.29686C83.3302 5.35269 83.3724 5.40852 83.4286 5.46435C83.499 5.50622 83.5552 5.5481 83.5974 5.58997C83.6396 5.61788 83.7099 5.6458 83.8084 5.67371C83.9068 5.70163 83.9772 5.72256 84.0194 5.73652C84.0616 5.75048 84.1319 5.77142 84.2303 5.79933C84.3428 5.82725 84.4132 5.8412 84.4413 5.8412L85.7493 6.13431C88.5623 6.7624 89.9688 8.2698 89.9688 10.6565C89.9688 11.5638 89.7719 12.3873 89.3781 13.127C88.9843 13.8528 88.4568 14.446 87.7958 14.9066C87.1488 15.3532 86.4174 15.6952 85.6017 15.9325C84.7859 16.1697 83.942 16.2884 83.07 16.2884C80.904 16.2884 78.8646 15.8068 76.9518 14.8438Z" fill="white"></path>
</svg>
