<?xml version="1.0" encoding="UTF-8"?>
<svg id="Layer_2" data-name="Layer 2" xmlns="http://www.w3.org/2000/svg" viewBox="0 0 23.31 28.22">
  <defs>
    <style>
      .cls-1 {
        fill: #fff;
        fill-rule: evenodd;
        stroke-width: 0px;
      }
    </style>
  </defs>
  <g id="Layer_1-2" data-name="Layer 1">
    <path class="cls-1" d="M8.96,27.54v.07h.15v-.14h-.15v.07ZM9.86,26.48v.07h.14v-.14h-.14v.07ZM13.73,26.22s-.01,0-.02,0c0,0,0,0,0,0,0,0,.01,0,.01,0ZM8.07,26.18v.07h.15v-.14h-.15v.07ZM10.46,26.03v.07h-.15s-.15.01-.15.01v.14h-.15v.15h.15v.23s0,.23,0,.23h-.07s-.07,0-.07,0v.15c0,.08,0,.21,0,.29v.15h-.15v.31h-.14v.12c0,.06,0,.16,0,.22v.11h.59v-.3h.15v-.23s0-.23,0-.23h.07s.07,0,.07,0v-.3h.14v-.14h.15v-.15h.15v-.15h.15v-.14h.07s.07,0,.07,0v-.07s0-.07,0-.07h.29v.45h-.14v.12c0,.06,0,.17,0,.22v.11h-.15v.15s0,.15,0,.15h-.07s-.07,0-.07,0v.59h.37s.37,0,.37,0v-.14h.06c.1,0,.1,0,.1-.08v-.07h.15s.15-.01.15-.01v-.14h-.29v.15h-.15s-.15,0-.15,0v-.07s0-.07,0-.07h.15v-.31h.14v-.11c0-.06.01-.16.01-.22v-.12h.14v-.12c0-.06,0-.17,0-.22v-.11h.15v-.46h-.15v-.14h-.44v.14h-.15c-.17.01-.16,0-.15.1v.05s-.07,0-.07,0h-.08s0,.08,0,.08v.08h-.15v.15h-.15v.07s0,.07,0,.07h-.14s-.15,0-.15,0v-.16h.06s.07,0,.07,0c0,0,.01-.07.01-.3v-.3h-.45v.07ZM19.58,26.02s0,.07,0,.08c0,0,.03,0,.07,0h.07v-.15h-.14v.07ZM13.75,25.88v.07h.15c.13.01.15.01.15.03,0,0,0,.04,0,.07v.06s.07,0,.07,0h.07s0,.08,0,.08c0,.04,0,.14,0,.23v.15h-.15v.15h-.15v.14h-.11c-.06,0-.16,0-.22,0h-.11v-.15h.14v-.23s0-.23,0-.23h.07s.07,0,.07,0v-.15s0-.15,0-.15h-.15v.14h-.07s-.07,0-.07,0v.07s0,.07,0,.07h-.14v.15h-.15v.15h-.14v.15s-.01.15-.01.15h-.14v.9h.14v.14c.01.08.01.14.01.15,0,0,.05.01.15.02h.15v.07c0,.06,0,.07.02.07,0,0,.11,0,.22,0h.21s0-.07,0-.07v-.07h.16c.09,0,.19,0,.22,0h.06v-.14h.15s.15-.01.15-.01v-.14h.15v-.15h.14v-.14h-.14v.14h-.15v.15h-.89v-.15s-.01-.15-.01-.15h-.14v-.45h.45v-.15h.3v-.14h.15s.15-.01.15-.01v-.15h.15v-.37s0-.37,0-.37h-.44s-.44,0-.44,0v.07ZM8.66,25.88v.07s-.15,0-.15,0h-.15v.15h.15c.08,0,.15,0,.15,0,0,0,0,.07,0,.15v.15h-.15v.3h-.07s-.07,0-.07,0v.07c0,.06,0,.07-.02.07,0,0-.04,0-.07,0h-.06s0,.15,0,.15v.15h-.15v.08s0,.08,0,.08h-.07s-.07,0-.07,0v.59h.11c.06,0,.16.01.22.01h.12s0-.08,0-.08v-.08h.45v-.15h-.3v-.15h.15v-.07c0-.06,0-.07.01-.07,0,0,.04,0,.07,0h.06s0-.15,0-.15v-.15h.15v-.07s0-.07,0-.07h.07s.07,0,.07,0v-.13c0-.07,0-.14,0-.15,0-.02,0-.02.07-.02h.07v-.15h.14v-.15s.01-.15.01-.15h.14v-.14h-.14v-.15h-.75v.07ZM7.4,25.51h-.08v.15h-.15s-.15,0-.15,0v.14h.15s.15,0,.15,0v.15h-.15v.3h-.15v.15h-.14v.15s-.01.15-.01.15h-.06s-.06,0-.07,0c0,0-.01.05-.02.15v.15h-.15v.15h-.15v.29h.22c.12,0,.26.01.3.01h.08s0-.08,0-.08v-.08h.15v-.16h.14v-.15s.01-.15.01-.15h.14v-.15s.01-.15.01-.15h.29v-.15h.29v-.07s0-.07,0-.07c0,0-.07,0-.15,0h-.14v-.15h.07s.07,0,.07,0v-.08s0-.08,0-.08h.14v-.15c0-.09.01-.19,0-.22v-.07s-.3,0-.3,0c-.16,0-.33,0-.37,0ZM16.73,25.12v.07s-.08,0-.08,0h-.07v.15h-.07s-.07,0-.07,0v.15s0,.15,0,.15h.15s.15,0,.15,0v.07s0,.07,0,.07h.07s.07,0,.07,0v.31c0,.17,0,.37,0,.45v.15h-.15v.31h-.15v.15h-.15v.14h-.14v-.11c0-.06-.01-.19-.01-.3v-.19h-.14v-.26c0-.14,0-.32,0-.38v-.12h-.15v-.45h-.3s-.3,0-.3,0v.08s0,.08,0,.08h-.15v.3h-.15v.07s0,.07,0,.07h.07s.07,0,.07,0v-.15h.15v.15h.14v.22c0,.12.01.29.01.38v.15h.14v.26c0,.14,0,.31,0,.37v.12h.15v.15h.3v-.15h.12c.07,0,.13,0,.14,0,.02,0,.02,0,.02-.1v-.05h.15v-.3h.15v-.15h.14v-.15s.01-.15.01-.15h.14v-.15s.01-.15.01-.15h.14v-.3h.07s.07,0,.07,0v-.9h-.07s-.07,0-.07,0v-.15h-.44v.07ZM21.07,24.91s0,.07,0,.15v.14s.08,0,.08,0h.07s0-.15,0-.15v-.15h-.07c-.05,0-.07,0-.08.01ZM5.23,24.75h-.29s0,.07,0,.07v.07h-.3v.15h-.3v.15h-.15v.14h-.07s-.07,0-.07,0v.07s0,.07,0,.07h-.14v.15s0,.15,0,.15h-.07s-.07,0-.07,0v.15s0,.15,0,.15h.07s.07,0,.07,0v.3h.3v.14h.14c.08,0,.38,0,.67,0h.53s0-.08,0-.08v-.07h.3v-.15h.29v-.07s0-.07,0-.07h.07s.07,0,.07,0v-.07s0-.07,0-.07h.07s.07,0,.07,0v-.3h.15v-.6h-.15v-.15h-.3v-.14h-.29v.14h.15v.46h-.15v.3h-.07s-.07,0-.07,0v.07s0,.07,0,.07h-.14v.15h-.15v.15h-.06s-.07,0-.07,0c-.01,0-.01.02-.01.07v.07h-.08s-.08,0-.08,0v.07s0,.07,0,.07h-.6v-.09c0-.05,0-.19,0-.3v-.21h.14v-.15s.01-.15.01-.15h.07s.07,0,.07,0v-.07s0-.07,0-.07h.14v-.15h.15v-.15h.15s.15,0,.15,0v-.07s0-.07,0-.07h.3v-.07s0-.07,0-.07h-.08s-.21,0-.37,0ZM18.08,24.68v.08h-.15v.44h-.07s-.07,0-.07,0v.76h.07s.07,0,.07,0v.3h.14v.14s.01.14.01.14h.07s.07,0,.07,0v.07s0,.07,0,.07h.11c.15.01.51.01.66,0h.11v-.15h.15v-.15h.15v-.15h.15v-.08s0-.08,0-.08h-.11c-.06,0-.13.01-.15.01h-.04v.14h-.6v-.07s0-.07,0-.07h-.07s-.07,0-.07,0v-.3h-.14v-.11c0-.06,0-.16,0-.22v-.12h-.14v-.12c0-.07-.01-.24-.01-.38v-.26h-.14v.08ZM18.38,24.3s0,.04,0,.08v.07h-.14v.07c0,.05,0,.07.01.07.05,0,.07,0,.11,0h.04v-.15h.14v.15h.15v.12c0,.07,0,.13,0,.14,0,0,0,.02,0,.03,0,0,.02,0,.07,0h.07s0,.15,0,.15v.15h-.14v.16h-.07s-.07,0-.07,0v.15h.29v-.15h.15v-.15s.01-.15.01-.15h.14v-.15s.01-.15.01-.15h.14v-.14h-.14v-.15s-.01-.15-.01-.15h-.37c-.2,0-.37,0-.37,0ZM21.71,22.79h.11v.15h.15v.3h.15v.14c0,.08,0,.14,0,.15,0,0,.02.01.07.02h.07s0,.12,0,.12c0,.06,0,.2,0,.3v.18h-.11c-.06,0-.16,0-.23,0h-.11v-.15h-.06s-.07,0-.07,0c0,0-.01-.02-.02-.08v-.07h-.14v-.15h-.15v-.07s0-.11,0-.15v-.07s-.07,0-.07,0h-.07v-.15h-.07s-.07,0-.07,0v-.22c0-.12,0-.22,0-.23,0,0,.06-.01.27-.01.14,0,.31,0,.37,0ZM18.98,22.34s0,.04,0,.08v.07h-.14v.15s-.01.15-.01.15h-.14v.15h-.15v.15h.15v-.15h.15v.07s0,.07,0,.07h.07s.07,0,.07,0v.08s0,.08,0,.08h.14v.15s.01.15.01.15h.14v.3h.07s.07,0,.07,0v.15s0,.15,0,.15h.07s.07,0,.07,0v.08s0,.08,0,.08h.13v.15s0,.15,0,.15h.07s.07,0,.07,0v.3h.07s.07,0,.07,0v.15s0,.15,0,.15h.07c.07,0,.07,0,.07.01,0,0,0,.08,0,.15v.13h.14v.15h.15v.07s0,.07,0,.07h.15s.15,0,.15,0v-.15h.15v-.15h.14v-.3h-.29v-.15h-.15v-.31h-.15v-.3h-.14v-.15s-.01-.15-.01-.15h-.14v-.13c-.01-.07-.01-.14-.01-.15,0-.02-.02-.03-.07-.03-.07,0-.07.02-.07-.15v-.15h-.15v-.16h-.14v-.15s-.01-.15-.01-.15h-.14v-.15s-.01-.15-.01-.15h-.14v-.06s0-.1,0-.14c0-.04,0-.08,0-.09,0,0-.02-.01-.07-.01h-.07v-.15h-.15c-.08,0-.15,0-.15,0ZM14.95,22.41v.07h.14v-.14h-.14v.07ZM15.7,21.9s0,.04,0,.07v.06h.07s.07,0,.07-.01c0,0,0,.03,0,.08v.09s-.07,0-.07,0h-.07v.14h.29v.07s0,.07,0,.07h.07s.07,0,.07,0v-.11c0-.06.01-.19.01-.3v-.19h-.22c-.17,0-.22,0-.22.01ZM15.4,21.89s0,.03,0,.07v.06s.07,0,.07,0h.07s0-.07,0-.07v-.07s-.06,0-.06,0c-.03,0-.06,0-.07,0ZM20.33,21.6s0,.04,0,.07v.05s.07,0,.07,0h.07s0-.07,0-.07v-.07h-.07s-.07,0-.07.01ZM15.7,21.43s-.01.03-.01.08v.07h.29v-.07s0-.07,0-.07h-.13c-.07,0-.14,0-.15,0ZM14.64,21.5v.08h-.15v.15h-.14v.3h.14v.15h.15v.15h.15v-.15h-.15v-.6h.15v-.07s0-.07,0-.07h-.07s-.07,0-.07,0v.08ZM16.74,21.88v.6h.67s.67,0,.67,0v-.14h-1.19v-.45h.07s.07,0,.07,0v-.06s0-.07,0-.07c0-.01-.01-.01-.07-.01h-.07v-.31h1.19v-.14h-1.34v.6ZM15.55,21.29s0,.04,0,.07v.06s.07,0,.07,0h.07s0-.07,0-.07v-.07s-.07,0-.07,0c-.05,0-.07,0-.07,0ZM12.69,21.87c0,.32,0,.59,0,.6,0,0,.13.01.6.01h.59v-.14h-1.05v-.45s0-.45,0-.45h.52s.52,0,.52,0v-.14h-1.2v.59ZM10.31,21.29s0,.94,0,1.08v.11s.07,0,.07,0h.07s0-.45,0-.45v-.45h.3v.07s0,.07,0,.07h.07s.1,0,.14,0h.08v.15h.15v.14h.15v.15h.15v.15h.15v.14h.28v-.11c0-.06.01-.33.01-.6v-.49h-.15v.9h-.15s-.14,0-.14,0v-.07s0-.07,0-.07h-.07s-.07,0-.07,0v-.14h-.15v-.15h-.15v-.15h-.15v-.14h-.07s-.07,0-.07,0v-.07s0-.07,0-.07h-.22c-.12,0-.22,0-.22,0ZM8.96,21.35v.07h-.14v.15h-.15v.3h-.15v.16h-.14v.15s-.01.15-.01.15h-.14v.14h.07s.07,0,.07,0v-.15h.15v-.15h.14v-.03s0-.05,0-.07c0-.02,0-.08,0-.12v-.08h.14v-.15s.01-.15.01-.15h.07s.07,0,.07,0v-.14h.14v.14h.07s.07,0,.07,0v.15s0,.15,0,.15h.14v.15s.01.15.01.15h.14v.15h.15v.07s0,.07,0,.07h.07s.07,0,.07,0v-.3h-.15v-.15h-.14v-.15s-.01-.15-.01-.15h-.14v-.15h-.07s-.07,0-.07,0v-.15s0-.15,0-.15h-.3v.07ZM5.68,21.29s0,.24,0,.53v.52s.07,0,.07,0h.07v-.76h.3v.15h.14v.15s.01.15.01.15h.14v.15h.15v.15h.15v.07s0,.07,0,.07h.13v-.07s0-.07,0-.07h.15v-.3h.15v-.15h.07s.07,0,.07,0v-.08s0-.08,0-.08h.14v-.14h.15v.34c0,.19,0,.39,0,.45v.11h.15v-1.2h-.3v.14h-.14v.15h-.15v.15h-.07s-.07,0-.07,0v.03s0,.08,0,.15v.12h-.15v.07s0,.07,0,.07h-.09c-.05,0-.08,0-.08,0,0,0,.01-.03,0-.07v-.06s-.07,0-.07,0h-.07v-.15h-.15v-.15h-.07s-.07,0-.08-.01c0,0,0-.07,0-.15v-.14h-.07s-.07,0-.07,0c0,0,0-.04,0-.08v-.07h-.22c-.17,0-.22,0-.22.01ZM2.86,21.13s-.01.02-.02.07v.07s-.08,0-.08,0h-.08v.15h-.15s-.14,0-.14,0v.07s0,.07,0,.07h-.29v.15h1.19v.14h.15s.15.01.15.01v.14h.15v.15h.15v.15h.29v.07s0,.07,0,.07h.07s.07,0,.07,0v.15h-.45v.14h-.44c-.24,0-.44.01-.45.02,0,0,0,.03,0,.07v.07s-.34,0-.34,0c-.19,0-.39,0-.45,0h-.11v.15h-.43c-.23,0-.43,0-.43,0,0,0-.01,0-.02,0-.01,0-.01.01-.02.07,0,.04,0,.07,0,.07,0,0-.2,0-.44,0-.4,0-.44,0-.44.02,0,0,0,.04,0,.07v.06s-.15,0-.15,0h-.15v.16h.14v.07s0,.07,0,.07h.15v.15h.15v.14h.07s.07,0,.08,0c0,0,.01.02,0,.08v.07s.14,0,.14,0h.15v.15h.15v.15h.15v.14h.07c.07,0,.1,0,.09.02,0,0,0,.01,0,.01,0,0,0,0,0,0,0,0-.01.01-.01.04s0,.04.01.04c0,0,0,0,0,0-.01,0-.01,0,0,.02,0,0,.01,0,.02,0,0,0,0,0,0,0,0,0,.06.01.13.01h.13v.15h.15v.15h.15v.14h.15s.15.01.15.01v.07s0,.07,0,.07h.07s.07,0,.07,0v.14h.15v.15h.3v-.14h.05s.06,0,.07,0,.06,0,.1,0h.08v-.14h.15s.15-.01.15-.01v-.14h.07s.07,0,.07,0v-.07s0-.07,0-.07h-1.35v-.14h-.15s-.15-.01-.15-.01v-.14h-.15s-.15-.01-.15-.01v-.07s0-.07,0-.07h-.07s-.07,0-.07,0v-.14h-.15v-.15h-.15v-.14h-.15v-.16h.15v-.07s0-.07,0-.07h.33c.18,0,.38,0,.45,0h.11v-.15h.9v-.07c0-.07,0-.07.01-.08,0,0,.21,0,.45,0h.43v-.14h.13c.07,0,.14,0,.14,0,0,0,.14,0,.31,0h.3v-.15h.22s.22,0,.22,0v-.15s0-.15,0-.15h-.15v-.14h-.15s-.15-.01-.15-.01v-.07s0-.07,0-.07h-.07s-.07,0-.07,0v-.14h-.15v-.15h-.15v-.14h-.15s-.15-.01-.15-.01v-.07s0-.07,0-.07h-.07s-.07,0-.07,0v-.14h-.15v-.15h-.08s-.11,0-.14,0h-.06s0-.08,0-.08v-.07h-.15v-.07s0-.07,0-.07h-.07s-.07,0-.07,0v-.14h-.07s-.08,0-.09,0c0,0,0,0,0,0,0,0,.01-.02,0-.07v-.07s-.06,0-.06,0c-.03,0-.06,0-.07,0ZM20.77,20.9v.08h-.07s-.07,0-.07,0v.15s0,.15,0,.15h-.07c-.06,0-.07,0-.07.02,0,0,0,.08,0,.15v.13s.15,0,.15,0h.15v.14h.06s.07,0,.07,0c0,0,.01.02.01.08v.08s.07,0,.07,0h.07s0,.08,0,.08v.08s.08,0,.08,0h.07s0,.08,0,.08v.07s.08,0,.08,0h.07v.3h-.3v.14h-.14v.24c0,.13,0,.41,0,.61v.36h.15v.15s0,.15,0,.15h.06s.07,0,.07,0c0,0,.01.05.02.14v.14s.07,0,.07,0h.07s0,.08,0,.08v.07s.15,0,.15,0h.15v.15h.2c.11,0,.25,0,.3,0h.1v-.15h.14v-.76h.06s.07,0,.08,0c.01,0,.01,0,.01.08v.08h.15s.15.01.15.01v.14h.14v-.14h.15v-.15s.01-.15.01-.15h.14v-.3s0-.3,0-.3h-.13v.15c0,.08-.01.15-.01.15,0,0-.07,0-.15,0h-.14v-.08s0-.08,0-.08h-.07s-.07,0-.07,0v-.15s0-.15,0-.15h-.07s-.07,0-.07,0v-.15h-.15v-.15h-.14v-.07s0-.07,0-.07h-.07s-.07,0-.07,0v-.14s-.01-.14-.01-.14h-.14v-.16h-.15v-.07s0-.07,0-.07h-.07s-.07,0-.07,0v-.14s-.01-.14-.01-.14h-.07s-.07,0-.07,0v-.07s0-.07,0-.07h-.14v-.15h-.15v-.15h-.14v-.15s-.01-.15-.01-.15h-.11c-.06,0-.12-.01-.15-.01h-.04s0,.08,0,.08ZM20.17,19.84v.07s.08,0,.08,0h.07s0-.07,0-.07v-.08h-.15v.07ZM17.63,19.69v.08h.15v-.15h-.15v.08ZM12.4,18.71s0,.04,0,.08v.07h.15s.14,0,.14,0v-.07s0-.07,0-.07h-.11c-.14-.01-.17-.01-.18,0ZM17.9,17.71s-.05,0-.07,0c-.02,0,0,0,.04,0s.06,0,.04,0ZM17.79,17.67s0,.02.07.02h.07s-.07,0-.07,0h-.07s0,.05,0,.05c0,.03,0,.09,0,.13v.07h-.16v-.14h-.14v-.15h.15c.14,0,.15,0,.15.01ZM16.48,16.3s.05,0,.07,0c.02,0,0,0-.04,0s-.06,0-.04,0ZM12.88,15.96s-.01,0-.02,0c0,0,0,0,0,0,0,0,.01,0,.01,0ZM12.87,15.93s0,0,0-.01c0-.02,0-.03,0-.02,0,0,0,.02,0,.03ZM12.97,15.93v.04s0-.04,0-.04c0-.02,0-.04,0-.04s0,.02,0,.04ZM12.98,15.87s0,0,0,0c0,0,0-.01,0-.01,0,0,0,.01,0,.02ZM12.94,15.86s-.03,0-.04,0c-.01,0,0,0,.02,0s.03,0,.02,0ZM2.1,15.85s0,.03,0,.07v.06h.03s.05,0,.07,0h.04v-.14h-.06s-.07,0-.07,0ZM21.67,15.85s0,.07,0,.15v.14h.15v.15h.15v.14h.07s.07,0,.07,0v.08s0,.08,0,.08h.14v.05s0,.13,0,.22v.17h.14v-.3s0-.3,0-.3h-.14v-.22s0-.22,0-.22h-.15s-.15,0-.15,0v-.14h-.04s-.09,0-.15,0c-.08,0-.11,0-.11,0ZM16.44,15.85s0,.13,0,.13c0,0,.07,0,.15.01h.14s0-.07,0-.07v-.08h-.11c-.16-.01-.18-.01-.18,0ZM20.47,15.7s0,.04,0,.07v.07s.07,0,.07,0h.08v-.14h-.07s-.07,0-.07,0ZM13.13,15.65s0,0,0-.04,0-.06,0-.04c0,.02,0,.05,0,.07ZM13.11,15.65s0,0,0-.04,0-.06,0-.04c0,.02,0,.05,0,.07ZM18.83,15.47v.08h.15v.14h.07s.07,0,.07,0v.07s0,.07,0,.07h.14v.15h.15v.15h.15v.15h.14v.07s0,.07,0,.07h.07s.07,0,.07,0v.14h.15v.15h.15v.15h.14v.07s0,.07,0,.07h.07s.07,0,.07,0v.14c.01.09,0,.15,0,.15s-.06,0-.15,0h-.14s0-.15,0-.15v-.15h-.3v-.15h-.29v-.07s0-.07,0-.07h-.07s-.07,0-.07,0v-.14h-.15v-.15h-.15v-.15h-.14v-.15s-.01-.15-.01-.15h-.07c-.07,0-.07,0-.07-.02,0-.01,0-.05,0-.08v-.06s-.07,0-.07,0h-.07s0-.23,0-.23v-.22s.08,0,.08,0h.08v.08ZM18.08,15.54v.15s-.07,0-.07,0h-.08v-.15h-.15v-.14h.08s.11,0,.15,0h.07s0,.15,0,.15ZM1.79,15.54v.15s.07,0,.07,0h.07s0,.08,0,.08v.08h.06c.09,0,.09,0,.09-.08v-.07h.14v-.15h-.29v-.15h-.15v.15ZM3.03,15.38s.05,0,.07,0c.02,0,0,0-.04,0s-.06,0-.04,0ZM13.31,15.17s0,.04.01.04c0,0,0-.01,0-.04,0-.02,0-.04-.01-.04s0,.02,0,.04ZM16.74,15.16v.07h.14v-.06s0-.06,0-.07c0-.01,0-.01-.07-.01h-.07v.07ZM13.34,15.1s0,0-.01,0-.01,0,0,0c0,0,0,0,.01,0s0,0,0,0ZM1.94,15.17v.08h.15c.11,0,.15,0,.15-.01,0,0,0-.04,0-.08v-.07s-.15,0-.15,0h-.15v.08ZM16.44,14.96s0,.04,0,.07v.05h.29v-.14h-.14c-.14,0-.14,0-.14.02ZM15.51,14.64h.02s0,.15,0,.15v.15h.3v.31h-.15v.07s0,.11,0,.15v.08h-.45v-.15h-.15v.31h-.14v.15s-.01.15-.01.15h-.14v.15h-.15v.15h-.3s-.3,0-.3,0v-.15h.14v-.07s0-.07,0-.07h.07s.07,0,.07,0v-.14h-.14v-.15h.14v-.15h.15v-.3h.07s.07,0,.07,0v-.07s0-.07,0-.07h.07s.07,0,.07,0v-.07s0-.07,0-.07h.29v-.15h.15v-.16h.12c.07,0,.13.01.15.01ZM20.52,14.34s.05,0,.07,0c.02,0,0,0-.04,0s-.06,0-.04,0ZM14.05,14.26v.07h.14v-.14h-.14v.07ZM16.86,13.87s0,.01,0,0c0,0,0,0,0-.01,0-.01-.01,0-.01,0ZM16.76,13.75s.04,0,.06,0c.03,0,.04,0,.03,0,0,0-.03,0-.05,0h-.04s0,.04,0,.04v.04s0-.05,0-.05c0-.04,0-.05-.02-.05-.01,0-.02,0,0,0,.01,0,.01.01.01.05v.04s0-.04,0-.04c0-.05-.02-.05-.02,0,0,.07,0,.07.07.07h.06s-.04,0-.04,0c-.02,0-.04,0-.05,0,0,0,0,0-.01,0,0,0,0,0,.04,0,.06,0,.06,0,.06-.04t-.04-.04s-.03,0,0,0h.04s0,.04,0,.04c0,.02,0,.04,0,.04s0-.02,0-.05v-.05h-.07s-.06,0-.05,0ZM20.88,13.27s-.03,0-.05,0c-.01,0,0,0,.02,0s.04,0,.02,0ZM20.89,13.25s-.01,0-.04,0-.04,0-.04,0,.02,0,.04,0,.04,0,.04,0ZM2.84,13.28v.15h.07s.07,0,.07,0v-.14h.07s.07,0,.07,0v-.15h-.29v.15ZM13.15,13.13v.16h-.15s-.15,0-.15,0v-.14c0-.08,0-.15,0-.15,0,0,.05,0,.15,0h.15v.16ZM18.97,12.64c0,.06,0,.16,0,.22v.12h-.15v-.15h-.15v-.15h.15v-.14h.14v.11ZM4.73,12.06s-.03,0-.04,0c-.01,0,0,0,.02,0s.03,0,.02,0ZM13.6,12.05s0,.01,0,0,0,0,.01,0c0,0,.02,0,.04,0h.04s-.04,0-.04,0h-.04s.05,0,.05,0h.05s-.06,0-.06,0c-.05,0-.06,0-.06.01ZM4.7,12.03s.03,0,.04,0c.01,0,0,0-.02,0s-.03,0-.02,0ZM4.04,11.92s0,.04,0,.08v.07h-.15v.15h-.07s-.07,0-.07,0v.07s0,.14,0,.22v.15h-.14v.3s-.01.3-.01.3h-.14v.15s-.01.15-.01.15h-.14v.07c0,.08,0,.08.08.08.03,0,.05,0,.06,0,0,0,.01.02.01.07v.07h-.15v.23s0,.23,0,.23h-.07s-.07,0-.07,0v.3h-.15v.07s0,.07,0,.07h-.3v-.15s-.01-.15-.01-.15h-.14s-.14,0-.14,0v.22s0,.22,0,.22h.07s.07,0,.07,0v.15h.15v.15h.14v.11c0,.06.01.13.01.15v.04h-.3v.45h.07s.07,0,.07,0v.45s0,.45,0,.45h.07s.07,0,.07,0v-.07s0-.07,0-.07h.14v-.3h.15v-.46h.15v-.3h-.15v-.3h-.07c-.05,0-.07,0-.07-.02,0-.01,0-.01.07,0,.04,0,.07,0,.07,0,0,0-.03,0-.07-.01h-.07s.07,0,.07,0h.07v-.09h-.07s-.07,0-.07,0h.07s.07,0,.07,0v-.31h.14v-.12c0-.06.01-.16.01-.22v-.11h.14v-.06s0-.14,0-.23v-.17h.14v-.27c0-.15,0-.32,0-.38v-.11s.05,0,.05,0c.03,0,.09,0,.15,0h.1s0-.22,0-.22c0-.12,0-.25,0-.3v-.08s0,.07,0,.07c0,.05,0,.07.01.07,0,0,0-.02,0-.07,0-.04,0-.07,0-.07s0,.03,0,.07v.07s.04,0,.04,0h.05v-.07s0-.07,0-.07c0,0,.01-.02.01-.09,0-.04,0-.13,0-.22v-.15h.14v-.15c.01-.12.01-.15,0-.15-.01,0-.13,0-.14,0ZM19.74,11.9s.07.02.07,0c0,0-.02,0-.04-.01-.02,0-.04,0-.04,0ZM4.76,11.97s0,0,0-.05,0-.09,0-.06c0,.03,0,.08,0,.11ZM4.68,11.91c0,.06,0,.1,0,.1s0-.04,0-.1,0-.1,0-.1,0,.04,0,.1ZM19.86,11.84s0,.05,0,.05c0,0,0-.03,0-.06,0-.07,0-.07.01,0ZM4.77,11.79s0,0,0,0,0,0,0,0,0,0,0,0,0,0,0,0ZM19.83,11.84s0,.06,0,.07c0,0-.01.01-.03.01-.06,0-.06,0-.06-.07,0-.03,0-.06,0-.06,0,0,0,.02,0,.05v.05h.08v-.05s0-.04,0-.03c0,.02,0,.02,0,0,0-.01,0-.02,0-.02,0,0,0,.03,0,.06ZM4.65,11.94s0,.08,0,.08c0,0,0,0,0,.02,0,.01,0,0,0-.01,0-.02,0-.08,0-.14,0-.11,0-.09,0,.06ZM4.48,12.07v.6h-.07c-.06,0-.07,0-.08.01,0,0,0,.11,0,.23v.22h.15v-.46h.07c.06,0,.07,0,.07-.01,0-.04,0-.14,0-.36v-.24s.07,0,.07,0c.06,0,.06,0,.06,0,0,0,0-.01,0-.01s0,0,.01.01c0,0,0,0,0,0,0-.01,0-.01-.02-.01-.06.01-.1.01-.1,0,0,0,0,0,.02,0,.01,0,.02,0,.01-.01,0-.01,0-.01.05-.01h.05s0-.2,0-.2v-.2h-.07s-.07,0-.07,0v-.16h-.15v.6ZM17.33,11.24v.07h.14v-.14h-.14v.07ZM12.74,11.14s.01,0,.03,0c.02,0,.04,0,.05,0,.01,0,.02,0,.02,0,0,0-.1-.02-.1-.01ZM12.83,11.11s0,0,0-.02,0-.04,0-.02c0,.01,0,.03,0,.05ZM17.02,11s0,0,0,0c0,0-.01-.02-.01-.04t0,0s0,.04.01.04ZM13.44,10.96v.05h-.05s-.05,0-.05,0h.04s.04,0,.04,0v-.04s0-.04,0-.04,0,.02,0,.05ZM18.21,10.9s-.01,0,0,0c0,0,.01,0,.01,0s-.02,0-.05,0t-.01,0h.04s-.04,0-.04,0h-.04s0,.05,0,.05c0,.03,0,.05-.01.04-.01,0-.02-.08-.01-.08,0,0,0,.02,0,.04t0,0v-.05s.05,0,.05,0c.02,0,.05,0,.06,0,0,0,0,0,0,0ZM17.02,10.89s0,.01,0,.01,0,0,0-.01,0-.01,0-.01,0,0,0,.01ZM16.91,10.9s0,.02.04.02h.04s-.04,0-.04,0h-.04s.04,0,.04,0c.02,0,.04,0,.04,0s0,0,0,0c0,0,0,0,0,.01,0,.01,0,.01,0,.01,0,0,0,0,0,0,0,0-.03,0-.05,0-.04,0-.04,0-.04-.02,0-.01,0-.02,0-.02s0,0,0,.02ZM18.11,10.88s0,0,0,0,0,0,0,0,0,0,0,0,0,0,0,0ZM18.22,10.88s0,0-.01,0-.01,0-.01,0,0,0,.01,0c0,0,.01,0,.01,0ZM4.63,10.94v.37h.14v-.75h-.14v.37ZM18.21,10.54s0,.02-.04.02h-.04s.04,0,.04,0c.02,0,.04,0,.04-.01,0,0-.02,0-.04,0-.02,0-.04,0-.04,0s.02,0,.04,0c.04,0,.04,0,.04.02ZM18.1,10.49s0,.05,0,.06c0,0,0,.01,0,.01-.02,0-.03-.02-.02-.07,0-.06.01-.06,0,0ZM18.2,10.43s.01,0,.01.01c0,0,0,0-.01,0,0,0-.03,0-.05,0-.02,0-.03,0-.03,0,0,0,.05,0,.07,0ZM18.03,10.3s-.05,0-.07,0c-.02,0,0,0,.04,0s.06,0,.04,0ZM18.03,10.28s-.05,0-.07,0c-.02,0,0,0,.04,0s.06,0,.04,0ZM14.18,10.08s0,0,0-.04,0-.06,0-.04c0,.02,0,.05,0,.07ZM14.1,10.04s0,.07,0,.07,0-.03,0-.07,0-.07,0-.07,0,.03,0,.07ZM13.59,10.04v.07s0-.07,0-.07v-.07s0,.07,0,.07c0,.09-.02.09-.02,0,0-.06,0-.07.01-.07.01,0,.01.01.02.07ZM13.45,9.97s0,.11,0,.23v.22h-.31v-.15h-.15v-.15c0-.08,0-.15,0-.15,0,0,.1,0,.23,0,.19,0,.22,0,.23.01ZM14.08,9.78s0,0,0,0-.01,0-.01,0,0,0,0,0,.01,0,.01,0ZM5.4,9.69s-.02.01-.02.05c0,.04,0,.05.02.05,0,0,.01,0,0,0,0,0-.01-.02-.01-.05,0-.04,0-.05.06-.05.02,0,.02,0,0,0-.02,0-.04,0-.05,0ZM5.39,9.67s.02,0,.02,0c0,0,0,0-.01,0s-.02,0-.01,0ZM5.45,9.67s.04.01.04.02c0,0,0,.01-.04.01h-.04v.08h.03s.04,0,.04.01,0,0-.02,0-.04,0-.04,0c0,0-.02,0-.03,0-.02,0-.03.03-.02.1,0,.03,0,.06,0,.06,0,0-.04,0-.07,0h-.06s0,.15,0,.15v.15h-.15v-.15h-.15v.21c0,.12,0,.22,0,.23,0,.01.02.01.07.01h.07v.15s0,.15,0,.15h.15v-.15h.14v-.25c0-.14,0-.31,0-.38v-.13s.07,0,.07,0h.08v-.09c0-.06,0-.09-.01-.09,0,0,0,0,0,0,.01,0,.02-.07,0-.07,0,0,0,0,0-.02,0-.02,0-.02-.05-.02-.04,0-.04,0,0,0ZM14.18,9.58c0,.12,0,.17,0,.11s0-.16,0-.22c0-.06,0,0,0,.11ZM14.06,9.56c0,.11,0,.21,0,.22v.02s.05,0,.05,0c.07,0,.09,0,.03-.02h-.04s.04,0,.04,0h.04v-.42h-.08v.2c0,.13,0,.2,0,.2s0-.07,0-.2,0-.2,0-.2,0,.07,0,.19ZM17.03,9.43v.07h.3v-.07s0-.07,0-.07h.22s.22,0,.22,0v.15h.15s.15,0,.15,0v.15h.14v.07s0,.07,0,.07h.07s.07,0,.07,0v.14h.15v.15s.01.15.01.15h.14v.15h.07s.07,0,.07,0v.07s0,.07,0,.07h.14v.15s.01.15.01.15h.14v.6h-.45v-.45h-.15v-.15h-.15v-.15h-.14v-.07s0-.07,0-.08c0,0,0-.03,0-.07,0-.06,0-.07-.02-.07-.01,0-.04,0-.06,0-.03,0-.04,0-.04.02v.02s0-.02,0-.02c0-.01,0-.02-.01-.02-.02,0-.02-.02-.02-.09v-.07s-.15,0-.15,0h-.15v-.15h-.3v-.14h-.15s-.15-.01-.15-.01v-.14h-.07s-.07,0-.07,0v-.07s0-.07,0-.07h-.29v-.31h.29v.07ZM13.74,9.51v.15h-.14v.07s0,.07,0,.08c0,0-.04,0-.08,0h-.08v-.22c0-.12.01-.22.01-.23,0,0,.04-.01.15-.01h.14v.15ZM5.38,9.43v.08h.14v-.15h-.14v.08ZM4.58,9.34s-.05,0-.07,0c-.02,0,0,0,.04,0s.06,0,.04,0ZM18.09,8.99s0,.03,0,.02c0-.01,0-.03,0-.04s0,0,0,.02ZM18.11,9s-.01.06-.02.03c0-.03,0-.07,0-.08.01-.01.02,0,.02.05ZM18.22,8.95s0,0,0,0c0,0,0-.01,0-.01s0,.01,0,.02ZM13.86,8.94s-.05,0-.07,0c-.02,0,0,0,.04,0s.06,0,.04,0ZM18.12,8.98v.04s0-.04,0-.04c0-.03,0-.04-.02-.04,0,0-.02,0-.02,0,0,0,0,0,.02,0,.02,0,.02.01.02.05ZM18.21,8.93s-.01.01-.04.01h-.04s.04,0,.04,0h.04s-.04,0-.04,0c-.02,0-.04,0-.04,0,0,0,.01,0,.04,0,.03,0,.04,0,.04.01ZM18.57,8.91s.05,0,.07,0c.02,0,0,0-.04,0s-.06,0-.04,0ZM13.74,8.83c0,.09,0,.08.09.09.04,0,.04,0-.01,0h-.07s0,.06,0,.06v.06s.07,0,.07,0c.07,0,.06,0-.08.01-.08,0-.15,0-.15,0,0,0,0-.07,0-.15v-.15h.15v.08ZM4.66,8.57s-.02,0-.02.02c0,.01,0,.01.01,0,.01,0,.01,0,.02,0,0,.01.1.01.1,0,0,0-.02,0-.05,0h-.05s.04,0,.04,0c.02,0,.05,0,.05-.01,0,0-.07,0-.11,0ZM4.76,8.5s0,.04,0,.01v-.04h-.08v.08h.09v-.05c0-.07,0-.07,0,0ZM4.64,8.51c0,.05,0,.06.02.05.01,0,.02,0,0,0,0,0-.01-.01,0-.04,0-.04.01-.05.06-.05.02,0,.04,0,.04,0,0,0-.02,0-.05,0-.04,0-.05,0-.05.02,0,.01,0,.01,0,0,0,0,0,0,0,.04ZM6.27,8.38v.04s0-.04,0-.04c0-.05-.02-.04-.02.02,0,.03,0,.05,0,.05,0,0,0-.09,0-.1.01-.02.02,0,.02.04ZM6.27,8.32s-.01,0-.02,0c0,0,0,0,0,0,0,0,.01,0,.01,0ZM6.18,8.32s.03,0,.04,0c.01,0,0,0-.02,0s-.03,0-.02,0ZM17.48,8.37v.07h.45v.15h.15v.15h.15v.08s0,.08,0,.08h-.05s-.06,0-.06,0c0,0,0,0-.01,0,0,0-.07-.01-.31-.01h-.31v-.15h.14v-.15h-.29v-.3h.15v.07ZM5.08,8.37v.07h.3v-.14h-.3v.07ZM13.15,7.4v.3h-.14v.07s0,.07,0,.07h-.07s-.07,0-.07,0v.14h.14v.07s0,.07,0,.07h-.07s-.07,0-.07,0v.14h-.11c-.06,0-.13.01-.15.01h-.04s0-.45,0-.45v-.45h.3v-.3h.29v.3ZM4.32,7.08s0,0,0-.01c0-.01,0-.01,0,0,0,.02,0,.02-.01,0,0-.01,0-.02,0-.02,0,0,.01-.02.01-.04,0-.03,0-.03,0,.01,0,.03,0,.05,0,.05ZM4.25,7.05s.04,0,.04.01,0,.01-.04.01h-.04s.04,0,.04,0h.04s-.04,0-.04,0h-.04s0-.04,0-.04v-.04s0,.04,0,.04v.04h.04ZM4.33,6.8s0,.05,0,.09,0,.08,0,.08c0,0,0,0,0-.02,0,0,0-.01,0-.01,0,0-.01,0-.02.01,0,0,0,0,0,0,0,0-.02-.01-.05,0h-.05s.05,0,.05,0h.05s-.05,0-.05,0c-.04,0-.05,0-.03,0,.01,0,.01,0,0,0-.01,0-.01.02-.02.28v.28s-.08,0-.08,0h-.07s0,.08,0,.08v.07s-.08,0-.08,0h-.07s0-.15,0-.15v-.15h-.15v-.15h-.14v.15h.14v.76h-.14v.3h.29v.31h.15v.15h.14v.15h-.14v.07c0,.08,0,.08-.08.08h-.06s0,.22,0,.22v.23h-.3v.14h-.14v.15h.29v-.16h.11c.06,0,.13.01.15.01h.04v.07s0,.07,0,.07h-.15v.31h-.15v.07c0,.05,0,.07-.01.07,0,0-.04,0-.07,0h-.06s0,.3,0,.3v.3s-.02,0-.02,0c-.01,0-.04,0-.07,0h-.05s0,.15,0,.15v.15h-.15v.31h.07s.07,0,.07,0v-.15s.01-.15.01-.15h.14v-.16h.15v-.3h.15v-.3h.07s.07,0,.07,0v-.15s0-.15,0-.15h.14v-.15h.15v-.12c0-.06,0-.17,0-.22v-.11h.15v-.3h.07c.06,0,.07,0,.07-.02,0-.01,0-.01-.07-.02h-.07s.07,0,.07,0h.07s0-.05,0-.05v-.04s-.07,0-.07,0h-.07s.07,0,.07,0c.04,0,.08,0,.08,0,0,0,0-.21,0-.45v-.45h.14v-.15h.3v-.15h.15v-.6h-.15v-.22s0-.22,0-.22h-.14s-.15-.01-.15-.01v-.14h-.22c-.12,0-.22,0-.23,0ZM3.73,6.86v.07h.15v-.14h-.15v.07ZM18.38,6.52s0,.09,0,.15v.12s.07,0,.07,0h.08v-.15h.15v-.07s0-.07,0-.07h-.14s-.15,0-.15,0v.04ZM12.32,6.33s.03,0,0,0c-.03,0-.04,0-.04-.01,0,0,0-.01,0,0,0,0,.02.01.04.01ZM12.36,6.27s0,.05,0,.05c0,0,0-.02,0-.05,0-.06,0-.06,0,0ZM12.26,6.29s0,0,0-.02c0-.03,0-.04,0-.03,0,.01,0,.04,0,.05ZM12.32,6.23h.04s-.04,0-.04,0c-.04,0-.04,0-.04-.02,0-.02,0-.02,0,0,0,.01.01.02.04.02ZM18.83,6.26v.07h.14v-.14h-.14v.07ZM18.23,6.26v.08h.07s.07,0,.07,0v-.15h-.14v.08ZM18.68,6.11v.07s.07,0,.07,0h.07s0-.07,0-.07v-.08h-.14v.07ZM18.08,6.11v.08h.14v-.15h-.14v.08ZM17.78,5.89s0,.04,0,.08v.07h.15v-.15h-.07s-.07,0-.08,0ZM6.98,5.47s-.02.02-.06.02c-.02,0-.02,0,.01,0h.04s-.04,0-.04,0h-.04s.04,0,.04,0c.02,0,.04,0,.05,0ZM7,5.44s0,0-.01,0c0,0-.01,0-.01,0s0,0,.01,0,.01,0,.01,0ZM6.9,5.45s-.02.02-.02,0c0,0,0-.02.02-.02,0,0,0,0,0,.01ZM6.13,5.36v.08h.14v-.15h-.14v.08ZM17.36,5.27s0,0,0,0,0,0,0,0,0,0,0,0,0,0,0,0ZM7.94,5.26s0,0-.01,0c0,0-.01,0-.01,0s0,0,.01,0,.01,0,.01,0ZM17.46,5.25s-.02,0-.04,0h-.04s.04,0,.04,0c.02,0,.04,0,.04,0s0,0,0,0ZM7.97,5.25s0,.01,0,0c0,0,0,0,0-.01s0,0,0,0,0,0,0,.01ZM17.34,5.23s.01.02.02,0c0,0,0,0,0-.01,0,0-.01,0-.01,0ZM7.94,5.23s0,.01,0,.01,0,0,0-.01c0,0,0-.01,0-.01s0,0,0,.01ZM18.08,5.21v.07h.14v-.14h-.14v.07ZM6.74,5.1s0,0,0,0c0,0,0-.01,0-.01,0,0,0,.01,0,.02ZM6.84,5.01s0,.03,0,.06c0,.03,0,.04,0,.03,0,0,0-.03,0-.05,0-.03,0-.03-.04-.03h-.04s0,.05,0,.05c0,.03,0,.05,0,.05,0,0,0-.02,0-.05v-.05h.04s.05,0,.05,0ZM5.97,4.97s-.02,0-.04,0h-.04s.04,0,.04,0c.02,0,.04,0,.04,0,0,0,0,0,0,0ZM7.92,4.75v.07h.07s.07,0,.07,0v.07s0,.07,0,.07h.07s.07,0,.07,0v.07s0,.07,0,.07h.14v.31h-.29v-.08c0-.07,0-.08-.01-.08,0,0-.01,0,0,0,0,0,.01,0,.01-.02,0,0-.01-.01-.04-.01-.03,0-.03,0-.02,0,.06,0,.06,0,.05-.05,0-.02,0-.04,0-.04s0,0,0,0c0,0-.02,0-.05,0h-.05v.08h.04s.04,0,.04,0h-.04s-.04,0-.04,0v-.04s0-.04-.02-.04-.01.01-.01.04c0,.02,0-.01,0-.08v-.12s-.08,0-.08,0h-.07s0,.07,0,.07c0,.04,0,.1,0,.15v.08s-.07,0-.07,0h-.07s0,.08,0,.08v.07h-.15v.14h-.05s-.06,0-.07,0c-.01,0-.06,0-.1,0h-.08v.15h-.15s-.15,0-.15,0v-.07c0-.07,0-.08.01-.08,0,0,.02,0,.01-.01,0,0,.02,0,.05,0,.07,0,.07,0,.07-.05,0-.06-.02-.06-.02,0,0,.04,0,.05-.01.05-.01,0-.01,0-.01-.04v-.04s0,.04,0,.04c0,.04,0,.04,0-.01,0-.04,0-.05.01-.05,0,0,.01-.02.01-.14,0-.08,0-.19,0-.23,0-.05,0-.09,0-.1,0,0,.02-.01.07-.01h.07v-.15h.15s.15,0,.15,0v-.07s0-.07,0-.07h.44v.07ZM7.87,4.23h.05v.15h-.3v-.07s0-.08,0-.08c0,0,.05,0,.1,0,.05,0,.12,0,.15,0ZM12.73,4.17s0,.03,0,.02,0-.03,0-.04c0-.01,0,0,0,.02ZM17.04,4v.08h.07s.07,0,.07,0v-.14h-.07s-.07,0-.07,0v.08ZM6.84,3.9s0,0,.01,0,.01,0,0,0c0,0,0,0-.01,0s0,0,0,0ZM16.76,3.89s0,0,0,0,0,0,0,0,0,0,0,0,0,0,0,0ZM6.76,3.89s0,.02.04.02c.04,0,.04,0,.03,0,0,0-.03-.01-.04-.01h-.03s.04,0,.04,0h.04s-.04,0-.04,0c-.03,0-.04,0-.04.01ZM16.88,3.87s-.01,0-.02,0c0,0,0,0,0,0,0,0,.01,0,.01,0ZM16.75,3.83s0,.03,0,.02,0-.03,0-.04c0-.01,0,0,0,.02ZM5.98,3.85v.07h.14v-.14h-.14v.07ZM9.68,3.58s0,0,0-.02,0-.03,0-.02,0,.03,0,.04ZM9.67,3.49s0,0-.03,0c-.03,0-.05,0-.05,0,0-.01.06-.01.08,0ZM9.63,3.51h.04s0,.06,0,.06v.05s0-.05,0-.05v-.05s-.04,0-.04,0c-.02,0-.04,0-.04,0,0,0,0,.07,0,.08,0,0,.03.01.06.01.04,0,.05,0,.04,0-.02,0-.02,0,0,0,.02,0,.02,0,.02.24,0,.13,0,.34,0,.46v.22h-.3v-.07s0-.07,0-.07h-.07s-.07,0-.07,0v-.15h.14v-.3s.01-.3.01-.3h.15v-.07s0-.07,0-.06c0,0,.03.01.05.02ZM9.7,3.49s0,.03,0,.06v.04s0-.05,0-.05c0-.03,0-.05,0-.05,0,0,0,0-.01-.02h-.02s.02,0,.02,0c.01,0,.02,0,.02.02ZM7.31,3.49s0,.04,0,.08v.06h-.14v.14h-.15v-.3h.15c.13,0,.15,0,.15.01ZM16.29,2.94v.07h.14v-.14h-.14v.07ZM7.76,2.81s0,.04,0,.04,0-.02,0-.04c0-.02,0-.04,0-.04s0,.02,0,.04ZM7.75,2.76s0,0-.01.01c-.01,0-.01,0,0,0,.01-.01.02-.02.02,0ZM7.72,2.76s-.03.02-.05.02h-.04v.07h.04s.04,0,.04,0h-.04s-.04,0-.04,0v-.04s0-.04,0-.04h.04s.04,0,.04,0h-.04s-.04-.01-.05-.02c0,0,.03,0,.07,0,0,0,.01,0,.01,0,0,0,0,0,0,0,0,0,0,.01,0,.02ZM7.75,2.73s.01,0,.01,0c0,0,.02-.01.08-.01h.08v.3h-.3v-.07s0-.07,0-.07h.07s.07,0,.07,0v-.05s0-.05-.02-.07c-.01-.01-.02-.02-.01-.02s.01,0,.02,0ZM7.64,2.72s0,0,0,0,0,0,0,0c0,0,0,0,0,0s0,0,0,0ZM14.18,2.35s0,0,0-.02,0-.03,0-.02c0,.01,0,.03,0,.04ZM14.06,2.33s0,.03,0,.02c0-.01,0-.03,0-.04,0-.01,0,0,0,.02ZM6.71,2.38s0,0,0-.03,0-.04,0-.03c0,.02,0,.04,0,.06ZM6.63,2.34v.04s0-.04,0-.04v-.04s0,.06,0,.06v.06s0-.05,0-.05c0-.05,0-.08.01-.07,0,0,0,.02,0,.05ZM14.09,2.29s.01,0,.03,0c.05,0,.05,0,0,0-.02,0-.04,0-.04,0ZM14.06,2.28s-.01.02,0,.02c0,0,.01,0,.01-.01,0,0,.01-.01.04,0,.05,0,.06.02.01.02t-.04.04v.04s0-.04,0-.04t0,.01s0,.05,0,.06c0,0,0,0,0,0-.02,0-.02,0-.02-.02,0,0,0-.02,0-.02,0,0,0-.02,0-.04,0-.06,0-.06.01-.06,0,0,0,0,0,0ZM6.69,2.28s-.04,0-.05,0c-.02,0,0,0,.03,0s.04,0,.03,0ZM6.6,2.35s0,.06,0,.05c0,0,0-.03,0-.07,0-.03,0-.06,0-.05,0,0,0,.04,0,.07ZM13.75,2.11v.15s-.07,0-.07,0c-.03,0-.06,0-.07,0,0,0-.04,0-.09,0h-.08v.15h.15c.08,0,.15,0,.15,0s.03,0,.07,0h.07s-.07,0-.07,0h-.07v.04s0,.04,0,.04c0,0,.01.01.07.01h.07s-.07,0-.07,0c-.06,0-.07,0-.07.02,0,.02,0,.02.07.01h.07s0,.08,0,.08v.08h.44v.07s0,.07,0,.07h.07s.07,0,.07,0v.14h.15v.15h.07s.07,0,.07,0v-.15s0-.15,0-.15h.45v.14h.45v-.14h-.15s-.15,0-.15,0v-.06s0-.07,0-.07c0-.01-.02-.01-.22-.01h-.22v-.15h-.6v-.07s0-.07,0-.08c0,0-.02-.01-.08-.01-.04,0-.08,0-.08,0,0,0-.02,0-.05,0s-.05,0-.05,0,.02,0,.05,0h.05s0-.06,0-.06v-.06s.15,0,.15,0h.16s0,.07,0,.07v.07h.34c.18,0,.35.01.37.01h.04v.15h.22s.22,0,.22,0v.07s0,.07,0,.07h.3v.14h.04s.09,0,.15,0h.11s0-.07,0-.07v-.08h-.29v-.15h-.15v-.07s0-.07,0-.07h-.07s-.1,0-.14,0h-.08v-.14h-.15s-.15-.01-.15-.01v-.14h-.22s-.22,0-.22,0v-.07s0-.07,0-.07h-1.03v.15ZM13,2.03v.07h.11c.06,0,.13.01.15.01h.04s0-.08,0-.08v-.08h-.29v.07ZM13.52,1.81h-.07v.15h.29v-.15h-.07s-.11,0-.15,0ZM12.7,1.74v.22h.29v-.45h-.29v.22ZM9.27,1.28v.07h-.07s-.18,0-.3,0h-.23v.15h.3v.14h.29v-.07s0-.07,0-.07h.07s.07,0,.07,0v-.29h-.11v.07s0,.07,0,.07v-.07s0-.07-.01-.07,0,.03,0,.07ZM6.29,1.19s-.02,0,.04.01c.03,0,.04,0,.04,0,0-.01-.06-.01-.08,0ZM6.33,1.16s-.04,0-.04,0c0,0,.01,0,.03,0,.03,0,.04,0,.06.01.01.01.02.01.02,0,0,0,0-.01.01-.01s.01,0,.01,0c0-.01-.01-.01-.02,0,0,0-.01,0-.02,0,0,0-.02,0-.05,0ZM6.27.46c0,.09,0,.28,0,.42s0,.26,0,.27c0,0,0,0,.01,0,0,0,.03,0,.05,0h.04s0-.04,0-.04v-.04s0,.04,0,.04c0,.02,0,.04.01.04s0-.02,0-.04c0-.04,0-.04,0,.01,0,.04,0,.06,0,.06,0,0-.01.01-.01.02,0,0,0,0,.01,0,.01,0,.01.02.01.23v.24h.15v.32c0,.18,0,.38,0,.45v.13s.07,0,.07,0h.07s0,.08,0,.08v.07h.14v.11c0,.06.01.16.01.22v.12h-.07s-.1,0-.15,0c-.04,0-.08,0-.09,0,0,0,0,.07,0,.15v.15h-.15v.14h-.15s-.15.01-.15.01v.14h.29v.3h-.07s-.07,0-.07,0v.09s0,.11,0,.15v.06h-.14v.15s-.01.15-.01.15h-.14v.15h-.08c-.08,0-.08,0-.08.02s0,.02.07.02c.06,0,.07,0,.07-.01,0,0,0,0,0,.04,0,.03,0,.04,0,.02v-.04h-.14v.25h-.29v-.11c0-.06-.01-.16-.01-.22v-.12s.08,0,.08,0h.08v-.46h.15v-.14h-.15v.07s0,.07,0,.07h-.29v.07s0,.07,0,.07h-.14v.46h-.07s-.07,0-.07,0v.07s0,.11,0,.15v.08h-.14v.11c0,.06-.01.13-.01.15v.04h.3v.15s0,.15,0,.15h-.07s-.07,0-.07,0h.07s.07,0,.07,0h-.07s-.07,0-.07,0v.1h.07s.07,0,.07,0h-.08s-.08,0-.08,0v.15s0,.15,0,.15h.14v-.15s.01-.15.01-.15h.29v-.07s0-.07,0-.07h.15s.15,0,.15,0v-.14h.29v-.15h-.29v-.3h.07s.07,0,.07,0v-.08s0-.08,0-.08h.14v-.15s.01-.15.01-.15h.14v-.1c0-.05,0-.12,0-.15v-.05s.08,0,.08,0h.07v-.16h.15v-.15h.14v-.07c0-.06,0-.07.02-.07.02,0,.02-.01,0-.02-.01,0,0,0,.02-.02.02,0,.04-.01.06-.01.02,0,.03,0,.03-.04v-.04h-.04s-.04,0-.04,0v.05s0,.05,0,.05v-.05s0-.05,0-.05h.04c.06,0,.06,0,.06.05,0,.02,0,.04-.01.05,0,0,0,.01,0,.01.02,0,.03-.03.02-.07,0-.04,0-.04.09-.04h.06s0,.18,0,.18c0,.1,0,.23,0,.3v.13h-.15v.2c0,.21-.01.55-.02.46,0-.05-.01-.07-.02-.05,0,.01-.06.01-.08,0-.03-.02-.03,0-.03.06,0,.04,0,.06.01.06,0,0,.04,0,.07,0h.06s0,.15,0,.15v.16s-.07,0-.07,0h-.07s0,.21,0,.21c0,.12,0,.22,0,.22,0,.01,0,.01-.07.01h-.07v.31h-.45v.15h-.15v.14h-.15v.15h-.15v.15s0,.15,0,.15h.07s.07,0,.07,0v.14h.07s.07,0,.07,0v.15s0,.15,0,.15h-.3v.07s0,.07,0,.07h-.15s-.15,0-.15,0v.15h.14v.14h.3v.31h-.14v.14h.07s.14,0,.22,0c.14,0,.15,0,.15.01,0,.01,0,.01.02.01.01,0,.02,0,0,0,0,0,0,0,0-.01.03,0,.07,0,.07.01,0,.01,0,.01-.04,0-.02,0-.04,0-.04,0s0,0-.02,0c-.02,0-.02,0-.02.36v.36s-.08,0-.08,0h-.07v.45h-.15v.31h-.14v.41c0,.23,0,.57,0,.75v.34s.07,0,.07,0h.08v.15h.15v.45h.15v.15h-.07s-.07,0-.07,0v.07s0,.07,0,.07h-.15v.3h-.07s-.07,0-.07,0v.07s0,.07,0,.07h-.14v.15h-.15v.15s0,.15,0,.15h-.07s-.07,0-.07,0v.15h.07s.07,0,.08,0c0,0,.04,0,.08,0h.07s0-.07,0-.07c0-.05,0-.07,0-.08,0,0,.04,0,.08,0h.07v-.14h.15v-.15h.15v-.15h.14v-.15s.01-.15.01-.15h.07s.07,0,.07,0v-.3h.3v.15h.15v.22s0,.22,0,.22h-.15v.15s0,.15,0,.15h-.07s-.07,0-.07,0v.15h-.15v.14h-.14v.15h-.15v.15h-.15v.14h-.15s-.15.01-.15.01v.07s0,.07,0,.07h-.08s-.08,0-.08,0v.14h-.07s-.11,0-.14,0h-.07s0,.08,0,.08v.07h-.15v.23s0,.23,0,.23h.05s.05,0,.05,0h-.04s-.04,0-.04,0c0,0,0,.02,0,.04,0,.05,0,.04.06.05.01,0,0,0-.02,0-.02,0-.04,0-.04,0s.02,0,.05,0c.05,0,.05,0,.05-.02,0-.01,0-.02-.01-.01-.01,0-.01,0,0,0,0,0,.01-.02,0-.05,0-.02,0-.04,0-.03,0,0,0,0,.01,0,0,0,0,0,0,.03,0,.03,0,.04,0,.04,0,0,0-.02,0-.04,0-.06,0-.05.01.02,0,.03,0,.05,0,.04,0-.01,0-.01-.01,0,0,.02,0,.02-.07.02-.07,0-.07,0,0,.01.04,0,.06,0,.07,0,.01-.01.01,0,.01.15v.16h-.07s-.07,0-.07,0v.08s0,.08,0,.08h-.15c-.17,0-.16.01-.16-.07,0-.03,0-.06,0-.07,0-.01-.01-.01-.15-.01h-.15v.14h-.07s-.07,0-.07,0v.07s0,.07,0,.07h-.14v.76h-.15v.15h-.15v.15s0,.15,0,.15h.07s.07,0,.07,0v-.3h.15v-.15h.14v-.12c0-.06,0-.17,0-.22v-.11h.15v-.31h.3v.45h-.15v.31h-.15v.46h-.14v.12c0,.06-.01.16-.01.22v.1h-.14v.16h.04s.09,0,.15,0h.11v-.15h.15v.14h.15s.15.01.15.01v.14h.29v-.3h.11c.06,0,.16,0,.22,0h.11v-.15h.15v-.07c0-.08,0-.08-.08-.08-.03,0-.09,0-.13,0h-.08s0-.07,0-.07v-.07s-.08,0-.08,0h-.07v-.14h.15s.15-.01.15-.01v-.14h.3v.31h.07s.07,0,.07,0v-.15s0-.15,0-.15h.14v-.09s0-.12,0-.15c0-.04,0-.1,0-.13v-.07h.14v-.08s0-.08,0-.08h.07s.07,0,.07,0v-.15c0-.09,0-.18,0-.22v-.06s.07,0,.07,0h.07v-.31h.07s.07,0,.07,0v-.15s0-.15,0-.15h.14v-.15h.15v-.15h.15v-.15h.15v.15h.07s.07,0,.08,0c0,0,.01.02,0,.08v.07s-.08,0-.08,0h-.07v.15h-.15v.15h-.15v.15h-.14v.15h.14v-.07s0-.07,0-.07h.07s.07,0,.07,0v-.15h.15v-.15h.15v-.14h.06s.1,0,.14,0,.08,0,.09,0c0,0,0-.03,0-.07v-.07s.15,0,.15,0h.14s0-.15,0-.15v-.15h.15v-.07s0-.07,0-.07h.07s.07,0,.07,0v-.14h.15s.15-.01.15-.01v-.14h.15v-.15h.15v-.15h.15v-.15h.15v-.14h.07s.07,0,.07,0v-.07s0-.07,0-.07h.6v-.07c0-.06,0-.07.01-.08,0,0,.07,0,.15,0h.13v-.14h.05s.06,0,.08,0h.02s0-.07,0-.07v-.07s.15,0,.15,0h.14s0-.15,0-.15v-.15s.07,0,.07,0c.04,0,.07,0,.07-.01,0,0,0-.04,0-.08v-.07h.14v-.14h.11c.14-.01.31-.01.33,0,.01,0,.01.02.01.08v.07h.14v.15s.01.15.01.15h.14v.15s.01.15.01.15h.14v.31h.15v.45h.07s.07,0,.07.01c0,.01.01.55.01.76v.13h.14v1.25c0,.69,0,1.3,0,1.36v.11h.15v-.31h.07c.05,0,.07,0,.07-.01,0,0,0-.04,0-.09s0-.11,0-.14v-.07h.14v-.14c0-.08,0-.14,0-.15,0,0,.02-.01.07,0,.04,0,.07,0,.07,0,0,0,0,0-.01,0-.01,0-.03,0-.03,0,0,0,0,0,.02,0h.03s0-.13,0-.13c0-.07,0-.14,0-.14,0,0,0-.04,0-.08v-.07s0,.07,0,.07v.07s.04,0,.04,0h.04s0-.07,0-.07v-.07s0,.07,0,.07c0,.07,0,.07.02.07h.02v-.15s.01-.15.01-.15h.15v-.16h.07c.06,0,.07,0,.07-.01,0,0,0-.01,0-.01,0,0,0-.01,0-.04v-.04h-.04s-.04,0-.05.01c0,.01,0,.03,0,.05,0,.03,0,.03-.02.03s-.02,0-.02-.04c0-.05,0-.07.02-.06,0,0,.01,0,.02,0,0-.01,0-.01.01,0,0,0,.02,0,.04.01.05,0,.05,0,.04,0,0,0,0,0,0,0,0,0,.01-.05.02-.16v-.16h.16v-.14h.05s.05,0,.06,0c0,0,.05,0,.1,0h.09v-.3h-.15v-.45h.15v-.46h.15v-.15h-.15v-.15h-.07s-.07,0-.07,0v-.15s0-.15,0-.15h.15v-.15h.15v-.45h-.15v-.31h.29v-.14h-.11c-.06,0-.16,0-.22,0h-.11v.08s0,.07-.01.08c0,0,0,.02,0,.05,0,.03,0,.04,0,.04,0,0,0,0,0-.03,0-.01,0-.03,0-.05,0-.02,0-.02-.06-.02h-.05s.05,0,.05,0h.05s0,.04,0,.04c0,.02,0,.04,0,.04,0,0,0-.02,0-.03v-.03h-.08v.04s0,.04,0,.04,0-.02,0-.05v-.05s0,.05,0,.05v.05s.05,0,.05,0c.03,0,.05,0,.06,0,.02,0,.02.03,0,.03,0,0-.01,0-.01,0,0,.02.03,0,.04-.02,0,0,0,.03,0,.08v.1s-.15,0-.15,0h-.15v.21c0,.12,0,.22,0,.22,0,.01-.01.01-.15.01h-.15v.15h-.29v-.14c0-.08,0-.15,0-.15,0,0,.06,0,.15,0h.15v-.14h-.45v-.15h.14v-.3h-.15s-.15-.01-.15-.01v-.14h.07s.07,0,.07,0v-.07s0-.07,0-.07h-.15v-.29h.1c.06,0,.12-.01.15-.01h.05v-.07c0-.07,0-.07-.02-.08-.01,0-.04,0-.06,0s-.04,0-.05-.01c0,0-.02-.01-.02,0,0,0,0,0,0,0,0,0,.01,0,.01.01,0,0,0,0-.01,0-.01-.01-.02-.1,0-.1,0,0,0,.02,0,.04,0,.02,0,.03,0,.03,0,0,0-.02,0-.05,0-.03,0-.04,0-.03,0,.01,0,.01,0,0,0-.01,0-.02.04-.02.04,0,.04,0-.01,0h-.05s.06,0,.06,0c.03,0,.06,0,.06,0,0,.01-.02.02-.05.02h-.03v.08h.04s.04,0,.05,0c0,0,0-.08,0-.17,0-.09,0-.22,0-.28v-.11h.15v-.08s0-.08,0-.08h.07c.05,0,.07,0,.07,0,0,0,0,.07,0,.15v.14s.15,0,.15,0h.15s0,.08,0,.08v.08h-.05s-.05,0-.05.01c0,0,0,.01,0,.01s0,.02,0,.05c0,.04,0,.04,0,.01,0-.05.01-.06.06-.06h.03s-.04,0-.04,0t0,0s.04,0,.05,0c.01,0,.01,0,0,0-.01,0-.01,0,0,0,.03,0,0,.01-.04.02h-.04s0,.04,0,.04c0,.04-.02.07-.02.04,0,0,0,0,0,0,0,0,0-.02,0-.05,0-.03,0-.05.01-.06.01,0,.01-.03,0-.03-.02,0-.03.03-.03.09v.06s-.08,0-.08,0h-.08v.15h-.15v.11c0,.06,0,.16,0,.22v.12h.3v.14h-.15v.15h.15v-.15h.14v-.15s.01-.15.01-.15h.14v-.22c0-.12,0-.23,0-.23,0,0,.01-.01.02,0,0,0,.01,0,0,0,0,0,0,0,0,0,0,0,.03,0,.05,0,.03,0,.04,0,.03,0,0,0-.01-.02-.01-.04,0-.03,0-.03-.03-.03-.02,0-.04,0-.05,0-.01,0-.01,0-.02.04v.04s0-.04,0-.04c0-.04,0-.04.01-.05.01,0,.01,0,0,0-.01,0-.01,0,0,0,.01,0,.03,0,.05,0,.03,0,.03,0,0,0h-.04s.04,0,.04,0c.02,0,.04,0,.04,0,0,0,0,.01,0,.04v.05s0-.04,0-.04v-.04s0,.04,0,.04c0,.06.02.06.02,0,0-.04,0-.05-.01-.05-.01,0-.01,0,0,0,.01,0,.01-.01.01-.09v-.09h.15v-.15h.14v-.15s.01-.15.01-.15h.07s.07,0,.07,0v-.3h-.07s-.07,0-.07,0v.07s0,.07,0,.07,0-.28,0-.6v-.6s.07,0,.07,0h.07v-.31h-.29v-.15h-.07c-.05,0-.07,0-.07-.01,0,0,0-.07,0-.15v-.14s.07,0,.07,0h.08v-.31h-.14v-.15s-.01-.15-.01-.15h-.07s-.07,0-.07,0v-.22c0-.12,0-.29,0-.38v-.15h.15v-.07s0-.07,0-.07h.07s.07,0,.07,0v.3h.15v.15h.07s.07,0,.07,0v.15s0,.15,0,.15h.14v.11c0,.06,0,.16,0,.23v.12s.08,0,.08,0h.07s0,.45,0,.45v.46h.15v.22s0,.22,0,.22h-.07s-.07,0-.07,0v1.66h.15v.14h.14v-.3h-.14v-.46h.07s.07,0,.07,0c0,0,.01-.35.01-.82v-.52h.14v-.15s0-.15,0-.15h.07s.07,0,.07,0v-.19c0-.11,0-.24,0-.3v-.11s.22,0,.22,0h.22s0,.07,0,.07v.08s.08,0,.08,0h.07v.15h-.29v.15h.14v.15s.01.15.01.15h.14v.11c0,.06,0,.16,0,.22v.11s-.08,0-.08,0h-.07s0,.08,0,.08v.07h-.14v.07s0,.11,0,.15v.07h-.15v.16h.15v.59h.15v.15h.14v.15h-.14v.15h-.16v.07s0,.07,0,.07h-.15s-.15.01-.15.01v.45h-.14v.35c0,.19-.01.43-.01.53v.18h-.14v.31h.15v.31h.14v-.15h.15v-.15h.31v-.07s0-.07,0-.07v.07s0,.07,0,.07h.1v-.07s0-.07,0-.07c0,0,0,.03,0,.07,0,.04,0,.07,0,.07,0,0,0-.03,0-.07,0-.04,0-.07,0-.08,0,0,0-.04,0-.07v-.07h.11c.06,0,.16-.01.22-.01h.11v-.14h-.14v-.15s0-.15,0-.15h-.07s-.07,0-.07,0v-.15h.14v-.15s.01-.15.01-.15h.15s.15-.01.15-.01v-.22s0-.22,0-.22h.15s.15,0,.15,0v-.3h.32v.03s-.02.11,0,.11c0,0,0,0,0-.01,0,0,0,0,0,0,0,0,.05.01.14.02h.13v.15h.15v-.15s0-.15,0-.15h-.07s-.07,0-.07,0v-.15h-.15v-.14h-.29v-.16h.14v-.14h.45v.14h.11c.06,0,.16,0,.22,0h.11v.15h.15v.15h.15v.14c0,.16,0,.16.08.15.03,0,.05,0,.04,0,0,0,0,0,.01.01.02,0,.02.01.02.08v.07h.14v.15h.15v.15h.15v.6h.15v.15s0,.15,0,.15h-.07s-.07,0-.07,0v.14h-.15v-.14h-.15v-.15h-.15v-.15h-.14v-.07s0-.07,0-.07h-.07s-.07,0-.07,0v-.27h-.07s-.07,0-.07,0h.07s.07,0,.07,0h-.08s-.08,0-.08,0v-.08s0-.08,0-.08h-.15v-.15h-.14v.15h.14v.15s.01.15.01.15h.14v.15s0,.15,0,.15h.07s.07,0,.07,0v.3h.15v.3h-.15s-.15,0-.15,0v.07s0,.07,0,.07h-.14v.3h.14v.23c0,.12,0,.26,0,.31v.08s-.08,0-.08,0h-.07s0-.08,0-.08v-.07h-.14v-.15h-.15s-.15,0-.15,0v.14h.07s.07,0,.07,0v.45h-.15v-.15h-.04s-.09,0-.15,0h-.11s0,.07,0,.07v.07s.07,0,.07,0h.07v.15h.15v.15h.15v.14h.07s.07,0,.07,0v.07s0,.07,0,.07h.07s.07,0,.07,0v.07s0,.07,0,.07h.07s.07,0,.07,0v.3s0,.3,0,.3h-.14v.3h-.3v-.15h-.15v-.15h-.15v-.14h-.06s-.06,0-.07,0c-.01,0-.01,0-.01.07v.08h.14v.15s.01.15.01.15h.14v.3h.15v.15h.15v.31h-.3v.14h.15v.31h-.45v-.06c0-.09,0-.09-.08-.09h-.07v-.29h-.14c-.11-.01-.13-.02-.08-.02h.07v-.09h-.07s-.07,0-.07,0h.07c.09,0,.1-.02,0-.02-.04,0-.07,0-.08-.01,0,0-.01-.04-.01-.08v-.07h-.15v-.15s0-.15,0-.15h.07s.07,0,.07,0v-.14h-.07s-.07,0-.07,0v-.07s0-.07,0-.07h-.14v-.11c0-.06,0-.16,0-.22v-.12h-.15v-.15h.45v-.15h-.15v-.14h-.07s-.07,0-.07,0v-.07s0-.07,0-.07h-.14v-.07s0-.07,0-.07h-.07s-.07,0-.07,0v-.3h.15v-.14h.15v.07s0,.07,0,.07h.07s.07,0,.07,0v-.15s.01-.15.01-.15h.08s.14,0,.22,0h.14v-.07s0-.07,0-.07h-.15v-.3h-.15v-.31h-.15v-.3h-.14v.14h-.15v.3h-.15v.3h-.07s-.07,0-.07,0v.07s0,.07,0,.07h-.15v.14h-.15s-.15.01-.15.01v.3h-.15v.15h-.15v.15h-.14v.14h-.15v.07s0,.07,0,.07h-.07s-.07,0-.07,0v.15h-.15v.15h-.14v.15s0,.15,0,.15h-.07s-.07,0-.07,0v.3h-.15v.6h-.15v.31h-.14v.11c0,.06,0,.16,0,.22v.12h-.15v.45h-.15v.15h-.07c-.06,0-.07,0-.08.01,0,0,0,.07,0,.15v.13h-.15s-.15.01-.15.01v.19c0,.1,0,.24,0,.3v.11h-.15v.08s0,.11,0,.15v.07s.15,0,.15,0h.15v-.14h.15v-.15h.15v-.15h.29v-.15s.01-.15.01-.15h.14v-.3h.15v-.15h.14v-.15s.01-.15.01-.15h.07s.07,0,.07,0v-.07s0-.07,0-.07h.14v-.15h.15v-.07s0-.07,0-.08c0,0,.07,0,.14,0,.08,0,.13,0,.13,0,0,0,0,0,0,0,0,0,0-.03,0-.06,0-.03,0-.06,0-.07,0,0,.04,0,.08,0h.07v-.14h.08s.08,0,.08,0v-.07s0-.07,0-.07h.29v.3h-.15v.31h-.15v.15h-.14v.15s-.01.15-.01.15h-.14v.15h-.15v.08s0,.11,0,.15v.06s-.07,0-.07,0h-.07v.31h.07s.07,0,.07,0v.07s0,.07,0,.07h-.15v.15h-.15v.3h-.11c-.06,0-.16,0-.22,0h-.11v.3h.3v-.07s0-.07,0-.07h.07s.14,0,.22,0h.15v-.14h.15s.15-.01.15-.01v-.15h.08s.18,0,.3,0h.22s0,.15,0,.15v.15h.3v.15h.15v.31h-.15v.07s0,.07,0,.07h.15s.15,0,.15,0v.15h-.15v.76h.15v.14h.15v-.14h.14v-.14c0-.08,0-.14,0-.15,0,0-.03-.01-.07-.01h-.07s0-.31,0-.31v-.3h-.14v-.16h.29v-.14h.22s.22,0,.22,0v.14h.08s.08,0,.08,0v.07s0,.07,0,.07h.37s.37,0,.37,0v-.12c0-.06-.01-.17-.01-.23v-.11h-.15v-.15h-.14v-.07s0-.07,0-.07h-.07s-.07,0-.07,0v-.3h-.15v-.31h-.15v-.15h-.15v-.14h-.29v-.15h-.15v-.15h-.15v-.15h-.04s-.09,0-.15,0h-.11v.15h.15v.3h.07s.07,0,.07,0v.08s0,.08,0,.08h.14v.15s.01.15.01.15h.14v.15h.29v.15h-.07s-.07,0-.07,0c0,0,0,.03,0,.07v.07h-.15v-.14h-.07s-.07,0-.07,0v-.07s0-.07,0-.07h-.14v.11c0,.06,0,.16,0,.22v.12h-.15v-.15c0-.08,0-.18,0-.23v-.08s.07,0,.07,0h.07v-.07s0-.07,0-.07h-.14v-.13c-.01-.18,0-.17-.08-.17-.03,0-.06,0-.07.01,0,0,0-.03,0-.08v-.09h-.15v-.17c0-.09,0-.19,0-.22,0-.04,0-.06-.01-.06,0,0-.04,0-.07,0h-.06s0-.23,0-.23v-.23h.14v-.15s0-.15,0-.15h.29v.07s0,.07,0,.07h.07s.07,0,.07,0v.07s0,.07,0,.07h.15v.15h.15v.15h.15v.07s0,.07,0,.07h.07s.07,0,.07,0v.15h.15v.15h.15v.15h.15v.14h.07s.07,0,.07,0v.07s0,.07,0,.07h.15v.15h.14v.12c0,.06,0,.17,0,.22v.11h.15v.15h.08s.11,0,.14,0h.06s0,.08,0,.08v.07h.08c.09,0,.08,0,.08.09,0,.03,0,.12,0,.21v.15h.15v-.07s0-.1,0-.14c0-.04,0-.14,0-.23v-.16h-.15v-.23s0-.23,0-.23h.14s.14,0,.14,0v-.11c0-.06.01-.13.01-.15v-.04s-.08,0-.08,0h-.08v-.16h.11c.06,0,.13.01.15.01h.04v.07s0,.07,0,.07h.07s.07,0,.07,0v.15s0,.15,0,.15h.15s.15,0,.15,0v.15h.07c.05,0,.07,0,.07.01,0,0,0,.04,0,.08,0,.04,0,.1,0,.14v.07h.14v.15s.01.15.01.15h.14v.11c0,.06,0,.16,0,.22v.12h.14v.14c.01.09.02.14.02.15,0,0,.04,0,.07,0h.06s0-.03,0-.03c0-.02,0-.04,0-.06,0-.06,0-.06.08-.06h.07v-.07s0-.07,0-.07h-.07s-.07,0-.07,0v-.3h.15v-.3h-.15v-.15s0-.15,0-.15h-.07s-.07,0-.07,0v-.14h-.15s-.15-.01-.15-.01v-.11c0-.06,0-.16,0-.22v-.12h-.15v-.07s0-.07,0-.07h-.07s-.07,0-.07,0v-.14h-.07s-.07,0-.07,0v-.07s0-.07,0-.07h-.14v-.07s0-.07,0-.07h-.07s-.07,0-.07,0v-.15h-.15v-.45h-.15v-.16c0-.09,0-.19,0-.22v-.06s.08,0,.08,0h.08s0,.07,0,.07v.07s.07,0,.07,0h.07v.07s0,.08,0,.08c0,0,0,.04,0,.08v.07s.07,0,.07,0h.08v.07c0,.05,0,.07.01.07,0,0,.07,0,.15,0h.14s0,.09,0,.09c0,.04,0,.11,0,.15v.06s.07,0,.07,0h.07s0,.08,0,.08v.08h.15v.15h.14v.15s.01.15.01.15h.21c.12,0,.21,0,.22,0,0,0,.01.02.01.07v.07s.15,0,.15,0h.15s0,.15,0,.15v.15s.08,0,.08,0h.07v.15h.15v.14h.14v.15h.15v.15h.15v.45h.29v-.15h-.14v-.45h.29v-.31c0-.17.01-.37,0-.45v-.14s.07,0,.07,0h.07s0,.07,0,.07v.08h.15v.3h.15v.16h.14v.07s0,.07,0,.07h.07s.07,0,.07,0v.15s.01.15.01.15h.29v-.15h-.15v-.15h-.14v-.15s-.01-.15-.01-.15h-.14v-.15h-.15v-.14c0-.08,0-.15,0-.15,0,0,0-.08,0-.16v-.15h-.15v.3h-.15v-.14h-.14v-.16h.07s.07,0,.07,0v-.07s0-.07,0-.07c0,0,.04,0,.08,0h.07v-.31h-.07s-.07,0-.07,0v.08s0,.08,0,.08h-.07s-.07,0-.07,0v.05s0,.06,0,.07v.02h-.3v-.14h-.15s-.15-.01-.15-.01v-.15h-.14v-.15s-.01-.15-.01-.15h-.14v-.15h-.15v-.15h-.15v-.14h-.07s-.07,0-.07,0v-.07s0-.07,0-.07h-.15v-.15h-.15v-.14h-.14s-.14-.01-.14-.01v-.07s0-.07,0-.07h-.07s-.07,0-.07,0v-.14h-.15v-.15h-.15v-.15h-.15v-.15h-.14v-.04s0-.09,0-.15v-.11s.07,0,.07,0c.09,0,.08,0,.08.09v.05s.15,0,.15,0h.15v.15h.15s.15.01.15.01v.14h.15v.15h.29v.07s0,.07,0,.07h.15s.15,0,.15,0v-.15h-.14v-.15h.14v-.07s0-.07,0-.07h-.14s-.14-.01-.14-.01v-.14h.6v.14h.29v.15h.16v.15h.29v.3h.14v-.3h.16v-.14h.14v.14h.15v-.04s0-.09,0-.15v-.11h-.15v-.15s0-.15,0-.15h-.07s-.07,0-.07,0v-.15h-.14v-.15s-.01-.15-.01-.15h-.14v-.3h.29v-.15h-.14v-.02s0-.05,0-.07v-.05s-.07,0-.07,0c-.04,0-.07,0-.08,0,0,0-.01-.03-.01-.07v-.07s-.15,0-.15,0h-.14v-.15h-.14v-.07s0-.07,0-.07h-.05s-.06,0-.07,0h-.03s0-.07,0-.07c0-.04,0-.07,0-.07s0-.01,0-.02c0,0,0-.02,0-.02,0,0,0,0,0,0,0,0,.01-.02.01-.05,0-.05,0-.05-.03-.05-.02,0-.04,0-.05,0-.02,0-.02,0,.01,0,.04,0,.06,0,.06.02,0,0,0,0-.01,0,0,0-.03-.01-.05-.01s-.04,0-.05-.01c0,0-.01,0-.02,0,0,0,0,0,0,.01,0,0,0,.02,0,.05,0,.04,0,.05,0,.06,0,0,0,.01,0,.01-.02,0-.03-.02-.02-.07,0-.03,0-.05,0-.05s0-.04,0-.09v-.09h-.15v-.15h-.15v-.15h-.07c-.06,0-.07,0-.08.02,0,0,0,.08,0,.15v.14h.15v.07s0,.07,0,.07h.07s.07,0,.07,0v.3h.15v.6h.14v.15s.01.15.01.15h.14v.07s0,.08,0,.08c0,0,.02.01.05,0,.03,0,.05,0,.05,0s-.02,0-.05,0c-.05,0-.06,0-.05.01,0,0,0,.03,0,.04,0,.03,0,.03.04.03h.04v-.04s0-.04,0-.04v.04s.01.04.01.04v-.04s.02-.05.02,0c0,.02,0,.04,0,.04,0,0,0-.07,0-.09,0,0,0,0,0,0,0,0,.01.01.01.06,0,.06,0,.08-.02.05,0,0-.01-.01-.02-.01,0,0-.03,0-.06,0h-.04s.05,0,.05,0h.05s-.05,0-.05,0h-.05s.05,0,.05,0c.03,0,.05,0,.06,0,0,0,0,0,0,0,0,0,0,0,.02,0,.02,0,.02,0,.01.15v.15s-.22,0-.22,0h-.22s0-.07,0-.07v-.08h-.15v-.41h-.07s-.07,0-.07,0h.07c.09,0,.1-.02,0-.02-.04,0-.07,0-.07,0,0,0-.04,0-.08,0h-.07v-.15s-.01-.15-.01-.15h-.07s-.07,0-.07,0v-.08s0-.08,0-.08h-.07s-.07,0-.07,0v-.45h-.15v-.3h.07s.07,0,.07,0v-.15s0-.15,0-.15h-.15v-.45c0-.42,0-.45-.01-.46-.01,0-.01,0,0,0,.01,0,.01,0,.01-.05,0-.03,0-.09,0-.14v-.1h.45v.15s.01.15.01.15h.14v.15h.15v.31h.07s.07,0,.07,0v-.45s0-.45,0-.45h-.3v-.45h-.14v-.15h-.15v-.07s0-.07,0-.07h-.07s-.07,0-.07,0v-.45h-.15v-1.51h-.14v-.12c0-.06-.01-.23-.01-.37,0-.22,0-.26-.01-.26,0,0-.01.02-.02.07v.07s0-.07,0-.07v-.07h-.09v.07c0,.1-.03-.26-.03-.42v-.12s-.07,0-.07,0h-.07v-.3h-.15v-.16h-.07s-.07,0-.07,0h.07s.07,0,.07,0v-.09h-.07s-.07,0-.07,0h.07s.07,0,.07-.01c0,0-.02,0-.07,0-.04,0-.07,0-.07,0s.03,0,.07,0h.07v-.3h-.07s-.07,0-.07,0v-.15s0-.15,0-.15h-.07s-.07,0-.07,0v.15s0,.15,0,.15h-.29v.3s0,.3,0,.3h-.11c-.06,0-.16,0-.22,0h-.11v-.15h-.16v.07s0,.11,0,.15c0,.05,0,.07,0,.07s0-.03.01-.07v-.07s0,.08,0,.08v.08s0-.08,0-.08v-.08s0,.07,0,.07v.07h.11v.15h.14v.07s0,.07,0,.07h.07s.07,0,.07,0v.07s0,.07,0,.07h.07s.07,0,.07,0v.3h.15v.3h.14v.12c0,.07.01.17.01.23v.11h.14v.31h-.15s-.15,0-.15,0v-.07s0-.07,0-.07h-.07s-.07,0-.07,0v-.06s0-.06,0-.06h-.07s-.07,0-.07,0h.07s.07-.01.07-.01h-.07c-.05,0-.07,0-.07-.02,0,0-.02-.01-.07-.01h-.07v-.14c-.01-.14-.01-.14-.03-.14,0,0-.08,0-.15,0h-.13s0-.08,0-.08v-.07s-.08,0-.08,0h-.07v-.15h-.15v-.15h-.29v-.15h-.15v-.15s0-.15,0-.15h-.07s-.07,0-.07,0v-.3h.15v-.15h.07c.05,0,.07,0,.07-.01,0,0,0-.04,0-.07v-.06s.23,0,.23,0h.22v-.15h-.15s-.15,0-.15,0v-.07s0-.07,0-.07h-.15v-.15h-.14v-.3h-.15s-.15-.01-.15-.01v-.15s0-.15,0-.15h.15v-.15h.3v-.14h-.41c-.23,0-.46,0-.53,0h-.11v-.16h-.14v-.07s0-.07,0-.07h.07s.07,0,.07,0v-.15h.45s.45,0,.45,0v.07s0,.07,0,.07h.15s.15,0,.15,0v-.07c0-.05,0-.07-.01-.08,0,0-.06,0-.13,0-.1,0-.12,0-.13-.02,0,0-.02-.01-.02-.01s0-.02,0-.05c0-.03,0-.05,0-.05,0,0,0,.02,0,.04,0,.03,0,.03.02.04.01,0,.01,0,0,.01,0,0,0,.01,0,.02,0,0,.02.01.05.01h.05v-.07s0-.07,0-.07h-.06s-.1,0-.15,0c-.05,0-.29,0-.54,0h-.45v-.14h-.14v-.15h-.16v-.15h1.2v.07s0,.07,0,.07h.22s.22,0,.22,0v.14h.15s.15.01.15.01v.14h.15v-.14h-.15v-.15h-.3v-.15h-.45v-.14h-.11c-.06,0-.19-.01-.3-.01h-.19v-.14h-.18c-.1,0-.24,0-.3,0h-.11v-.15h-.15v-.15h.6v-.15h-.22c-.12,0-.25,0-.3,0h-.08s.07,0,.07,0c.04,0,.07,0,.07,0s-.03,0-.07-.01h-.07s.07,0,.07,0h.07v-.1h-.14c-.08,0-.17,0-.22,0h-.08v-.15h.08s.08,0,.08,0v-.14h.14s.15,0,.15,0v.07s0,.07,0,.07h.11c.06,0,.16,0,.23,0h.11v.15h.14c.17,0,.18,0,.18.06,0,.03,0,.04-.01.04s-.01-.01-.02-.04c0-.04,0-.04,0,.01,0,.06,0,.08.02.08,0,0,0,0,0,0s0,0,0,0,0,0,0-.01,0-.01,0-.02c0,0,0,.02,0,.04,0,0,0,.01.04.01.03,0,.05,0,.05-.01,0,0,0,0,0,0,0,0,.02.01.08.01h.08v-.07s0-.07,0-.07h-.07s-.07,0-.07,0v-.07s0-.07,0-.07h-.15s-.15-.01-.15-.01v-.14h-.15s-.15,0-.15,0v-.07s0-.07,0-.07h-1.49v.46h-.15v.3h-.07c-.05,0-.07,0-.07.02,0,0,0,.04,0,.07v.06s-.15,0-.15,0h-.15s0-.08,0-.08v-.07s-.15,0-.15,0h-.15v-.3h-.3v-.14h-.14v-.15h-.15v-.15h-.15v-.15h-.15v-.14h-.15s-.15-.01-.15-.01v-.07s0-.07,0-.07h-.07s-.07,0-.07,0v-.15h-.07s-.07,0-.07,0v-.15s-.01-.15-.01-.15h-.15v-.14h-.22c-.12,0-.26,0-.3,0h-.07s0,.07,0,.07v.08h.07s.07,0,.07,0v.07s0,.07,0,.07h.29v.07s0,.07,0,.07h.07s.07,0,.07,0v.08c0,.08,0,.14,0,.29v.08h.14v.15h.15v.15h.15v.3h.15v.15s0,.15,0,.15h-.05s-.05,0-.06,0c0,0,0,0-.01,0s0,0,0,0c0,0,0,0,0,0s-.01.02-.01.04c0,.06,0,.09,0,.09,0,0,0-.02,0-.04,0-.03,0-.04.01-.04.01,0,.01,0,0,0-.01,0,0,0,.04,0,.05,0,.05,0,.02,0h-.04s.03.01.03.01h.03s-.04,0-.04,0h-.04s0,.04,0,.04c0,.03,0,.04,0,.04,0,0,.02,0,.05,0h.06s0,.15,0,.15v.15h.14v.31h-.14v.13c0,.07,0,.24,0,.37v.24s.11,0,.11,0c.06,0,.12,0,.15,0h.04s0-.15,0-.15v-.15h.15v-.14h.14v.15s.01.15.01.15h.14v.3h-.14v.15h-.06c-.09,0-.09,0-.09.08v.07h-.14v.07s0,.07,0,.07h-.08s-.08,0-.08,0v.14h-.15s-.15.01-.15.01v.15h-.15v.14h-.15v-.16c0-.09,0-.18,0-.21,0-.03,0-.05,0-.05s0,.02-.01.06v.06s0-.05,0-.05c0-.04,0-.06.01-.06.01,0,.01-.01,0-.02-.01,0-.01,0-.01,0,0,0,0,.01-.01.01,0,0-.01,0,0,0,.02,0,0-.02-.04-.02-.03,0-.05,0-.05,0,0,0,0,0,0,0,0,0,0-.19,0-.46v-.45s-.07,0-.07,0h-.07s0-.08,0-.08v-.08h-.14v-.3s0-.3,0-.3h-.07s-.07,0-.07,0v-.15h-.07c-.08,0-.08,0-.08-.07,0-.03,0-.09,0-.14v-.09h-.15v.3s0,.3,0,.3h-.15v.07s0,.08,0,.08,0,.04,0,.07v.07s-.07,0-.07,0h-.07v.31h.14v.1c0,.06.01.29.01.52v.42h.07s.07,0,.08,0c0,0,0,.07,0,.15v.14s-.11,0-.11,0c-.06,0-.19,0-.29,0h-.19v-.15h-.15v-.46h.14v-.76h-.14v-.3c0-.16,0-.4,0-.53v-.23s-.08,0-.08,0h-.07v.3h-.15v-.15h-.14v-.14h-.15v.14h.07s.07,0,.07,0v.07s0,.07,0,.07h.14v.31h-.45v-.15h-.15v-.45h.14v-.3h-.14v-.61h-.15v-.3h-.15v-.15h-.14v-.07s0-.07,0-.07c0,0,0-.04,0-.09v-.08s-.07,0-.07,0h-.07s0-.07,0-.07v-.07h-.15v.15s0,.15,0,.15h.07s.07,0,.07,0v.15c0,.08.01.32,0,.52v.38s-.09,0-.09,0c-.05,0-.15,0-.22,0h-.13s0-.15,0-.15v-.15h-.15v.3h-.15s-.15.01-.15.01v.15s-.01.15-.01.15h-.15v.14h-.14v-.14h-.15v-.15h.07s.07,0,.07,0v-.07s0-.07,0-.07h.07s.07,0,.07,0v-.15s.01-.15.01-.15h.08s.11-.01.15,0h.07s0-.07,0-.07v-.07h.3v-.45c0-.25,0-.55,0-.68v-.23h-.15v-.15h-.3v-.14h-.07s-.07,0-.07,0v-.07s0-.07,0-.07h-.07s-.07,0-.07,0v-.07s0-.07,0-.07h-.44v-.07s0-.07,0-.07h-.07s-.1,0-.14,0h-.08s0-.07,0-.07v-.07s-.08,0-.08,0h-.07v-.15h-.15s-.15,0-.15,0v-.07s0-.07,0-.07h-.14v-.15h-.3v-.3h-.14v.16ZM11.35.23v.23s-.08,0-.08,0h-.07s0,.15,0,.15v.15h-.07s-.07,0-.07,0v.06s0,.07,0,.07c0,0,.21.02.33.01h.12v-.15h.14v-.46h-.14v-.15s-.01-.15-.01-.15h-.14v.23Z"/>
  </g>
</svg>